<?xml version="1.0" encoding="UTF-8" standalone="no"?>
<svg
   xmlns:dc="http://purl.org/dc/elements/1.1/"
   xmlns:cc="http://creativecommons.org/ns#"
   xmlns:rdf="http://www.w3.org/1999/02/22-rdf-syntax-ns#"
   xmlns:svg="http://www.w3.org/2000/svg"
   xmlns="http://www.w3.org/2000/svg"
   xmlns:sodipodi="http://sodipodi.sourceforge.net/DTD/sodipodi-0.dtd"
   xmlns:inkscape="http://www.inkscape.org/namespaces/inkscape"
   height="3.7226877cm"
   version="1.1"
   viewBox="0 0 136.4445 105.525"
   width="4.8134589cm"
   id="svg892"
   sodipodi:docname="fluxonium_circuit_numbers.svg"
   inkscape:version="1.0.1 (c497b03c, 2020-09-10)"
   inkscape:export-filename="/Users/philipp/Dropbox (Personal)/CircuitDesign/git/docs/circuit_figures/fluxonium_circuit.png"
   inkscape:export-xdpi="300"
   inkscape:export-ydpi="300">
  <metadata
     id="metadata896">
    <rdf:RDF>
      <cc:Work
         rdf:about="">
        <dc:format>image/svg+xml</dc:format>
        <dc:type
           rdf:resource="http://purl.org/dc/dcmitype/StillImage" />
        <dc:title></dc:title>
      </cc:Work>
    </rdf:RDF>
  </metadata>
  <sodipodi:namedview
     pagecolor="#ffffff"
     bordercolor="#666666"
     borderopacity="1"
     objecttolerance="10"
     gridtolerance="10"
     guidetolerance="10"
     inkscape:pageopacity="1"
     inkscape:pageshadow="2"
     inkscape:window-width="1588"
     inkscape:window-height="937"
     id="namedview894"
     showgrid="false"
     inkscape:zoom="4.8957635"
     inkscape:cx="89.669365"
     inkscape:cy="75.026647"
     inkscape:window-x="0"
     inkscape:window-y="23"
     inkscape:window-maximized="0"
     inkscape:current-layer="svg892"
     inkscape:document-rotation="0"
     fit-margin-top="0"
     fit-margin-left="0"
     fit-margin-right="0"
     fit-margin-bottom="0"
     units="cm" />
  <defs
     id="defs835">
    <style
       type="text/css"
       id="style833">
*{stroke-linecap:butt;stroke-linejoin:round;}
  </style>
  </defs>
  <g
     id="figure_1">
    <g
       id="patch_1">
      <path
         d="M 0,105.525 H 136.4445 V 0 H 0 Z"
         style="fill:none"
         id="path837" />
    </g>
    <g
       id="axes_1">
      <g
         id="patch_2">
        <path
           clip-path="url(#p1cb049dcca)"
           d="m 59.89725,18.3375 c 0,-1.073715 -0.438847,-2.104551 -1.219168,-2.863782 C 57.897761,14.714486 56.83829,14.2875 55.73475,14.2875 c -1.10354,0 -2.163011,0.426986 -2.943332,1.186218 -0.780321,0.759231 -1.219168,1.790067 -1.219168,2.863782"
           style="fill:none;stroke:#000000;stroke-linejoin:miter"
           id="path840" />
      </g>
      <g
         id="patch_3">
        <path
           clip-path="url(#p1cb049dcca)"
           d="m 68.22225,18.3375 c 0,-1.073715 -0.438847,-2.104551 -1.219168,-2.863782 C 66.222761,14.714486 65.16329,14.2875 64.05975,14.2875 c -1.10354,0 -2.163011,0.426986 -2.943332,1.186218 -0.780321,0.759231 -1.219168,1.790067 -1.219168,2.863782"
           style="fill:none;stroke:#000000;stroke-linejoin:miter"
           id="path843" />
      </g>
      <g
         id="patch_4">
        <path
           clip-path="url(#p1cb049dcca)"
           d="m 76.54725,18.3375 c 0,-1.073715 -0.438847,-2.104551 -1.219168,-2.863782 C 74.547761,14.714486 73.48829,14.2875 72.38475,14.2875 c -1.10354,0 -2.163011,0.426986 -2.943332,1.186218 -0.780321,0.759231 -1.219168,1.790067 -1.219168,2.863782"
           style="fill:none;stroke:#000000;stroke-linejoin:miter"
           id="path846" />
      </g>
      <g
         id="patch_5">
        <path
           clip-path="url(#p1cb049dcca)"
           d="m 84.87225,18.3375 c 0,-1.073715 -0.438847,-2.104551 -1.219168,-2.863782 C 82.872761,14.714486 81.81329,14.2875 80.70975,14.2875 c -1.10354,0 -2.163011,0.426986 -2.943332,1.186218 -0.780321,0.759231 -1.219168,1.790067 -1.219168,2.863782"
           style="fill:none;stroke:#000000;stroke-linejoin:miter"
           id="path849" />
      </g>
      <g
         id="line2d_1">
        <path
           clip-path="url(#p1cb049dcca)"
           d="M 18.27225,50.7375"
           style="fill:none;stroke:#000000;stroke-linecap:round"
           id="path852" />
      </g>
      <g
         id="line2d_2">
        <path
           clip-path="url(#p1cb049dcca)"
           d="m 18.27225,50.7375 v -16.2 -16.2"
           style="fill:none;stroke:#000000;stroke-linecap:round"
           id="path855" />
      </g>
      <g
         id="line2d_3">
        <path
           clip-path="url(#p1cb049dcca)"
           d="m 18.27225,18.3375 h 33.3 m 33.3,0 h 33.3"
           style="fill:none;stroke:#000000;stroke-linecap:round"
           id="path858" />
      </g>
      <g
         id="line2d_4">
        <path
           clip-path="url(#p1cb049dcca)"
           d="m 118.17225,18.3375 v 16.2 16.2"
           style="fill:none;stroke:#000000;stroke-linecap:round"
           id="path861" />
      </g>
      <g
         id="line2d_5">
        <path
           clip-path="url(#p1cb049dcca)"
           d="M 118.17225,50.7375"
           style="fill:none;stroke:#000000;stroke-linecap:round"
           id="path864" />
      </g>
      <g
         id="line2d_6">
        <path
           clip-path="url(#p1cb049dcca)"
           d="m 118.17225,50.7375 h -49.95 m 8.325,8.1 -16.65,-16.2 m 0,16.2 16.65,-16.2 m -8.325,8.1 h -49.95"
           style="fill:none;stroke:#000000;stroke-linecap:round"
           id="path867" />
      </g>
      <g
         id="line2d_7">
        <path
           clip-path="url(#p1cb049dcca)"
           d="m 118.17225,50.7375 v 16.2 16.2"
           style="fill:none;stroke:#000000;stroke-linecap:round"
           id="path870" />
      </g>
      <g
         id="line2d_8">
        <path
           clip-path="url(#p1cb049dcca)"
           d="m 118.17225,83.1375 h -46.953 m 0,8.1 v -16.2 m -5.994,16.2 v -16.2 m 0,8.1 h -46.953"
           style="fill:none;stroke:#000000;stroke-linecap:round"
           id="path873" />
      </g>
      <g
         id="line2d_9">
        <path
           clip-path="url(#p1cb049dcca)"
           d="m 18.27225,83.1375 v -16.2 -16.2"
           style="fill:none;stroke:#000000;stroke-linecap:round"
           id="path876" />
      </g>
      <g
         id="patch_6">
        <path
           clip-path="url(#p1cb049dcca)"
           d="m 18.27225,53.1675 c 0.662345,0 1.297651,-0.25604 1.765999,-0.711731 0.468349,-0.45569 0.731501,-1.073825 0.731501,-1.718269 0,-0.644444 -0.263152,-1.262579 -0.731501,-1.718269 C 19.569901,48.56354 18.934595,48.3075 18.27225,48.3075 c -0.662345,0 -1.297651,0.25604 -1.765999,0.711731 -0.468349,0.45569 -0.731501,1.073825 -0.731501,1.718269 0,0.644444 0.263152,1.262579 0.731501,1.718269 0.468348,0.455691 1.103654,0.711731 1.765999,0.711731 z"
           style="stroke:#000000;stroke-linejoin:miter"
           id="path879" />
      </g>
      <g
         id="patch_7">
        <path
           clip-path="url(#p1cb049dcca)"
           d="m 118.17225,53.1675 c 0.66234,0 1.29765,-0.25604 1.766,-0.711731 0.46835,-0.45569 0.7315,-1.073825 0.7315,-1.718269 0,-0.644444 -0.26315,-1.262579 -0.7315,-1.718269 -0.46835,-0.455691 -1.10366,-0.711731 -1.766,-0.711731 -0.66234,0 -1.29765,0.25604 -1.766,0.711731 -0.46835,0.45569 -0.7315,1.073825 -0.7315,1.718269 0,0.644444 0.26315,1.262579 0.7315,1.718269 0.46835,0.455691 1.10366,0.711731 1.766,0.711731 z"
           style="stroke:#000000;stroke-linejoin:miter"
           id="path882" />
      </g>
    </g>
  </g>
  <defs
     id="defs890">
    <clipPath
       id="p1cb049dcca">
      <rect
         height="91.125"
         width="122.0445"
         x="7.1999998"
         y="7.1999998"
         id="rect887" />
    </clipPath>
  </defs>
  <text
     xml:space="preserve"
     style="font-size:15px;line-height:1.25;font-family:sans-serif;-inkscape-font-specification:sans-serif;stroke-width:0.75"
     x="4.2894235"
     y="56.125488"
     id="text900"><tspan
       sodipodi:role="line"
       id="tspan898"
       x="4.2894235"
       y="56.125488"
       style="font-size:15px;stroke-width:0.75">0</tspan></text>
  <text
     xml:space="preserve"
     style="font-size:15px;line-height:1.25;font-family:sans-serif;-inkscape-font-specification:sans-serif;stroke-width:0.75;stroke-linecap:butt;stroke-linejoin:round"
     x="122.06898"
     y="55.942383"
     id="text900-7"><tspan
       sodipodi:role="line"
       id="tspan898-3"
       x="122.06898"
       y="55.942383"
       style="font-size:15px;stroke-width:0.75">1</tspan></text>
</svg>
