<?xml version="1.0" encoding="UTF-8" standalone="no"?>
<svg
   xmlns:dc="http://purl.org/dc/elements/1.1/"
   xmlns:cc="http://creativecommons.org/ns#"
   xmlns:rdf="http://www.w3.org/1999/02/22-rdf-syntax-ns#"
   xmlns:svg="http://www.w3.org/2000/svg"
   xmlns="http://www.w3.org/2000/svg"
   width="84.721245pt"
   height="35.389427pt"
   viewBox="0 0 84.721245 35.389427"
   version="1.2"
   id="svg1081">
  <metadata
     id="metadata1085">
    <rdf:RDF>
      <cc:Work
         rdf:about="">
        <dc:format>image/svg+xml</dc:format>
        <dc:type
           rdf:resource="http://purl.org/dc/dcmitype/StillImage" />
        <dc:title></dc:title>
      </cc:Work>
    </rdf:RDF>
  </metadata>
  <defs
     id="defs1002">
    <clipPath
       id="clip1">
      <path
         d="M 47 19 L 59 19 L 59 35.390625 L 47 35.390625 Z M 47 19 "
         id="path996" />
    </clipPath>
    <clipPath
       id="clip2">
      <path
         d="M 77 15 L 84.722656 15 L 84.722656 31 L 77 31 Z M 77 15 "
         id="path999" />
    </clipPath>
  </defs>
  <g
     id="surface58612">
    <path
       style=" stroke:none;fill-rule:nonzero;fill:rgb(0%,0%,0%);fill-opacity:1;"
       d="M 35.125 15.296875 C 35.125 14.75 34.671875 14.28125 34.109375 14.28125 C 33.5625 14.28125 33.09375 14.734375 33.09375 15.296875 C 33.09375 15.84375 33.53125 16.3125 34.109375 16.3125 C 34.65625 16.3125 35.125 15.875 35.125 15.296875 Z M 32.21875 19.984375 L 32.21875 20.625 C 33.609375 20.625 33.8125 20.78125 33.8125 21.96875 L 33.8125 28.859375 C 33.8125 29.796875 33.703125 29.921875 32.125 29.921875 L 32.125 30.5625 C 32.71875 30.515625 33.78125 30.515625 34.40625 30.515625 C 35 30.515625 36.015625 30.515625 36.578125 30.5625 L 36.578125 29.921875 C 35.125 29.921875 35.078125 29.765625 35.078125 28.875 L 35.078125 19.703125 Z M 32.21875 19.984375 "
       id="path1004" />
    <path
       style=" stroke:none;fill-rule:nonzero;fill:rgb(0%,0%,0%);fill-opacity:1;"
       d="M 41.1875 24.71875 C 41.1875 22.328125 42.203125 20.109375 44.0625 20.109375 C 44.234375 20.109375 44.40625 20.125 44.578125 20.203125 C 44.578125 20.203125 44.03125 20.375 44.03125 21.015625 C 44.03125 21.609375 44.5 21.859375 44.875 21.859375 C 45.171875 21.859375 45.71875 21.6875 45.71875 21 C 45.71875 20.203125 44.921875 19.703125 44.078125 19.703125 C 42.203125 19.703125 41.390625 21.546875 41.140625 22.40625 L 41.109375 22.40625 L 41.109375 19.703125 L 38.234375 19.984375 L 38.234375 20.625 C 39.703125 20.625 39.921875 20.78125 39.921875 21.96875 L 39.921875 28.859375 C 39.921875 29.796875 39.828125 29.921875 38.234375 29.921875 L 38.234375 30.5625 C 38.828125 30.515625 39.96875 30.515625 40.609375 30.515625 C 41.328125 30.515625 42.59375 30.515625 43.265625 30.5625 L 43.265625 29.921875 C 41.484375 29.921875 41.1875 29.921875 41.1875 28.796875 Z M 41.1875 24.71875 "
       id="path1006" />
    <g
       clip-path="url(#clip1)"
       clip-rule="nonzero"
       id="g1010">
      <path
         style=" stroke:none;fill-rule:nonzero;fill:rgb(0%,0%,0%);fill-opacity:1;"
         d="M 56.433594 19.703125 L 56.027344 19.703125 L 55.292969 22.15625 C 54.714844 20.84375 53.683594 19.703125 52.027344 19.703125 C 49.496094 19.703125 47.058594 21.96875 47.058594 25.234375 C 47.058594 28.484375 49.339844 30.765625 51.824219 30.765625 C 53.730469 30.765625 54.792969 29.296875 55.121094 28.75 L 55.121094 33.6875 C 55.121094 34.625 55.011719 34.75 53.433594 34.75 L 53.433594 35.390625 C 54.027344 35.34375 55.121094 35.34375 55.761719 35.34375 C 56.402344 35.34375 57.527344 35.34375 58.121094 35.390625 L 58.121094 34.75 C 56.527344 34.75 56.433594 34.65625 56.433594 33.6875 Z M 55.167969 27.171875 C 55.167969 28.234375 54.277344 29.21875 54.199219 29.296875 C 53.433594 30.171875 52.542969 30.359375 51.949219 30.359375 C 50.089844 30.359375 48.652344 28.015625 48.652344 25.265625 C 48.652344 22.359375 50.292969 20.15625 52.199219 20.15625 C 54.183594 20.15625 55.167969 22.40625 55.167969 23.703125 Z M 55.167969 27.171875 "
         id="path1008" />
    </g>
    <path
       style=" stroke:none;fill-rule:nonzero;fill:rgb(0%,0%,0%);fill-opacity:1;"
       d="M 65.542969 19.984375 L 65.542969 20.625 C 67.011719 20.625 67.230469 20.78125 67.230469 21.96875 L 67.230469 26.46875 C 67.230469 28.5625 66.121094 30.359375 64.277344 30.359375 C 62.246094 30.359375 62.074219 29.15625 62.074219 27.859375 L 62.074219 19.703125 L 59.074219 19.984375 L 59.074219 20.625 C 60.074219 20.625 60.746094 20.625 60.761719 21.609375 L 60.761719 26.375 C 60.761719 28.03125 60.761719 29.09375 61.402344 29.796875 C 61.730469 30.109375 62.355469 30.765625 64.136719 30.765625 C 66.246094 30.765625 67.058594 28.96875 67.261719 28.453125 L 67.277344 28.453125 L 67.277344 30.765625 L 70.230469 30.5625 L 70.230469 29.921875 C 68.761719 29.921875 68.542969 29.765625 68.542969 28.578125 L 68.542969 19.703125 Z M 65.542969 19.984375 "
       id="path1012" />
    <path
       style=" stroke:none;fill-rule:nonzero;fill:rgb(0%,0%,0%);fill-opacity:1;"
       d="M 74.769531 15.296875 C 74.769531 14.75 74.316406 14.28125 73.753906 14.28125 C 73.207031 14.28125 72.738281 14.734375 72.738281 15.296875 C 72.738281 15.84375 73.175781 16.3125 73.753906 16.3125 C 74.300781 16.3125 74.769531 15.875 74.769531 15.296875 Z M 71.863281 19.984375 L 71.863281 20.625 C 73.253906 20.625 73.457031 20.78125 73.457031 21.96875 L 73.457031 28.859375 C 73.457031 29.796875 73.347656 29.921875 71.769531 29.921875 L 71.769531 30.5625 C 72.363281 30.515625 73.425781 30.515625 74.050781 30.515625 C 74.644531 30.515625 75.660156 30.515625 76.222656 30.5625 L 76.222656 29.921875 C 74.769531 29.921875 74.722656 29.765625 74.722656 28.875 L 74.722656 19.703125 Z M 71.863281 19.984375 "
       id="path1014" />
    <g
       clip-path="url(#clip2)"
       clip-rule="nonzero"
       id="g1018">
      <path
         style=" stroke:none;fill-rule:nonzero;fill:rgb(0%,0%,0%);fill-opacity:1;"
         d="M 80.847656 20.546875 L 84.332031 20.546875 L 84.332031 19.90625 L 80.847656 19.90625 L 80.847656 15.328125 L 80.410156 15.328125 C 80.363281 17.875 79.488281 20.109375 77.378906 20.15625 L 77.378906 20.546875 L 79.535156 20.546875 L 79.535156 27.515625 C 79.535156 27.984375 79.535156 30.765625 82.410156 30.765625 C 83.878906 30.765625 84.722656 29.328125 84.722656 27.484375 L 84.722656 26.078125 L 84.269531 26.078125 L 84.269531 27.46875 C 84.269531 29.171875 83.613281 30.3125 82.566406 30.3125 C 81.847656 30.3125 80.847656 29.8125 80.847656 27.5625 Z M 80.847656 20.546875 "
         id="path1016" />
    </g>
    <path
       style="fill:none;stroke-width:1;stroke-linecap:butt;stroke-linejoin:round;stroke:rgb(0%,0%,0%);stroke-opacity:1;stroke-miterlimit:10;"
       d="M 16.5 -33.664062 C 23.570312 -33.664062 29.300781 -27.917969 29.300781 -20.828125 "
       transform="matrix(1,0,0,-1,0,0)"
       id="path1020" />
    <path
       style="fill:none;stroke-width:1;stroke-linecap:butt;stroke-linejoin:round;stroke:rgb(0%,0%,0%);stroke-opacity:1;stroke-miterlimit:10;"
       d="M 29.300781 -17.59375 C 29.300781 -10.503906 23.570312 -4.757812 16.5 -4.757812 "
       transform="matrix(1,0,0,-1,0,0)"
       id="path1022" />
    <path
       style="fill:none;stroke-width:1;stroke-linecap:butt;stroke-linejoin:round;stroke:rgb(0%,0%,0%);stroke-opacity:1;stroke-miterlimit:10;"
       d="M 29.300781 -20.804688 L 29.300781 -17.59375 "
       transform="matrix(1,0,0,-1,0,0)"
       id="path1024" />
    <path
       style="fill:none;stroke-width:2;stroke-linecap:round;stroke-linejoin:round;stroke:rgb(0%,0%,0%);stroke-opacity:1;stroke-miterlimit:10;"
       d="M 22.101562 -27.222656 L 28.5 -33.640625 "
       transform="matrix(1,0,0,-1,0,0)"
       id="path1026" />
    <path
       style="fill:none;stroke-width:1;stroke-linecap:round;stroke-linejoin:round;stroke:rgb(0%,0%,0%);stroke-opacity:1;stroke-miterlimit:10;"
       d="M 16.5 -30.433594 C 18.394531 -30.433594 20.246094 -29.867188 21.824219 -28.816406 "
       transform="matrix(1,0,0,-1,0,0)"
       id="path1028" />
    <path
       style="fill:none;stroke-width:1;stroke-linecap:butt;stroke-linejoin:round;stroke:rgb(0%,0%,0%);stroke-opacity:1;stroke-miterlimit:10;"
       d="M 16.5 -4.757812 C 11.199219 -4.757812 6.898438 -9.066406 6.898438 -14.382812 "
       transform="matrix(1,0,0,-1,0,0)"
       id="path1030" />
    <path
       style="fill:none;stroke-width:1;stroke-linecap:butt;stroke-linejoin:round;stroke:rgb(0%,0%,0%);stroke-opacity:1;stroke-miterlimit:10;"
       d="M 6.898438 -14.382812 L 6.898438 -20.804688 "
       transform="matrix(1,0,0,-1,0,0)"
       id="path1032" />
    <path
       style="fill:none;stroke-width:1;stroke-linecap:butt;stroke-linejoin:round;stroke:rgb(0%,0%,0%);stroke-opacity:1;stroke-miterlimit:10;"
       d="M 6.898438 -20.804688 C 6.898438 -26.121094 11.199219 -30.433594 16.5 -30.433594 "
       transform="matrix(1,0,0,-1,0,0)"
       id="path1034" />
    <path
       style="fill:none;stroke-width:1;stroke-linecap:butt;stroke-linejoin:round;stroke:rgb(0%,0%,0%);stroke-opacity:1;stroke-miterlimit:10;"
       d="M 19.519531 0.113281 L 18.738281 3.414062 "
       id="path1036" />
    <path
       style="fill:none;stroke-width:1;stroke-linecap:butt;stroke-linejoin:round;stroke:rgb(0%,0%,0%);stroke-opacity:1;stroke-miterlimit:10;"
       d="M 20.652344 3.878906 L 21.441406 0.589844 "
       id="path1038" />
    <path
       style="fill:none;stroke-width:1;stroke-linecap:butt;stroke-linejoin:round;stroke:rgb(0%,0%,0%);stroke-opacity:1;stroke-miterlimit:10;"
       d="M 16.5 -33.640625 C 7.664062 -33.640625 0.5 -26.457031 0.5 -17.59375 C 0.5 -8.730469 7.664062 -1.546875 16.5 -1.546875 C 17.382812 -1.546875 18.261719 -1.621094 19.128906 -1.765625 "
       transform="matrix(1,0,0,-1,0,0)"
       id="path1040" />
    <path
       style="fill:none;stroke-width:1;stroke-linecap:round;stroke-linejoin:round;stroke:rgb(0%,0%,0%);stroke-opacity:1;stroke-miterlimit:10;"
       d="M 21.5625 2.398438 C 22.816406 2.757812 24.027344 3.269531 25.160156 3.925781 "
       id="path1042" />
    <path
       style="fill:none;stroke-width:1;stroke-linecap:butt;stroke-linejoin:round;stroke:rgb(0%,0%,0%);stroke-opacity:1;stroke-miterlimit:10;"
       d="M 3.699219 -14.382812 L 3.699219 -20.804688 "
       transform="matrix(1,0,0,-1,0,0)"
       id="path1044" />
    <path
       style="fill:none;stroke-width:1;stroke-linecap:butt;stroke-linejoin:round;stroke:rgb(0%,0%,0%);stroke-opacity:1;stroke-miterlimit:10;"
       d="M 3.699219 -20.804688 C 3.699219 -27.222656 6.898438 -30.433594 10.101562 -32.035156 C 13.300781 -33.640625 16.5 -33.640625 16.5 -33.640625 "
       transform="matrix(1,0,0,-1,0,0)"
       id="path1046" />
    <path
       style="fill:none;stroke-width:1;stroke-linecap:butt;stroke-linejoin:round;stroke:rgb(0%,0%,0%);stroke-opacity:1;stroke-miterlimit:10;"
       d="M 3.699219 -14.382812 C 3.699219 -7.964844 10.101562 -1.546875 16.5 -1.546875 "
       transform="matrix(1,0,0,-1,0,0)"
       id="path1048" />
    <path
       style="fill:none;stroke-width:1;stroke-linecap:round;stroke-linejoin:round;stroke:rgb(0%,0%,0%);stroke-opacity:1;stroke-miterlimit:10;"
       d="M 2.65625 -14.390625 L 2.65625 -16.308594 L 2.730469 -16.878906 L 2.730469 -17.773438 L 2.796875 -18.398438 L 2.847656 -18.453125 L 2.886719 -17.433594 L 3.207031 -14.851562 L 3.328125 -14.113281 L 3.46875 -13.742188 L 3.511719 -13.433594 L 3.574219 -13.335938 L 3.816406 -12.273438 L 3.816406 -13.015625 L 3.671875 -13.835938 L 3.371094 -15.25 L 3.097656 -16.257812 L 2.898438 -17.390625 L 2.898438 -20.042969 L 2.898438 -14.914062 L 2.976562 -15.375 L 3.066406 -16.878906 L 3.113281 -19.503906 L 3.183594 -20.617188 L 3.207031 -17.304688 L 3.332031 -16.453125 L 3.332031 -15.277344 L 3.59375 -16.910156 L 3.667969 -17.914062 L 3.667969 -20.625 L 3.628906 -19.050781 L 3.546875 -18.363281 L 3.546875 -16.976562 L 3.546875 -18.253906 L 3.453125 -18.628906 L 3.453125 -19.074219 L 3.183594 -21.441406 L 3.183594 -23.445312 L 3.183594 -21.816406 L 3.132812 -21.292969 L 3.132812 -17.714844 L 3.035156 -16.285156 L 2.945312 -15.875 L 2.945312 -21.667969 L 3.117188 -23.039062 L 3.285156 -23.523438 L 3.449219 -24.265625 L 3.449219 -22.042969 L 3.171875 -20.339844 L 3.148438 -23.015625 L 3.183594 -23.601562 L 3.234375 -23.65625 L 3.234375 -19.125 L 3.128906 -18.078125 L 2.785156 -16.085938 L 2.644531 -15.585938 L 2.539062 -15.585938 L 2.5 -15.777344 L 2.40625 -17.144531 L 2.40625 -20.855469 L 2.585938 -21.847656 L 2.746094 -22.238281 L 2.746094 -18.855469 L 2.644531 -17.105469 L 2.644531 -14.574219 L 2.644531 -18.222656 L 2.59375 -19.355469 L 2.453125 -20.789062 L 2.453125 -21.835938 L 2.40625 -19.808594 L 2.351562 -19.203125 L 2.351562 -15.058594 L 2.617188 -12.746094 L 2.898438 -11.199219 L 2.898438 -12.601562 L 2.570312 -15.042969 L 2.53125 -16.546875 L 2.53125 -15.519531 L 2.792969 -12.898438 L 3.097656 -11.414062 L 3.59375 -9.792969 L 3.59375 -10.726562 L 3.238281 -12.273438 L 3.078125 -13.394531 L 3.078125 -14.972656 L 3.078125 -14.15625 L 3.269531 -12.511719 L 3.476562 -11.148438 L 3.664062 -10.4375 L 3.882812 -9.941406 L 3.839844 -10.671875 L 3.398438 -12.476562 L 3.21875 -13.457031 L 3.21875 -12.722656 L 3.957031 -10.015625 L 4.070312 -9.78125 L 3.957031 -10.40625 L 3.582031 -11.871094 L 3.582031 -11.585938 L 3.695312 -10.996094 L 4.179688 -9.425781 L 4.472656 -8.652344 L 4.429688 -9.144531 L 4.050781 -10.386719 L 3.917969 -11.054688 L 3.796875 -12.105469 L 3.839844 -11.195312 L 4.203125 -9.816406 L 4.746094 -8.4375 L 4.996094 -7.988281 L 5.28125 -7.640625 L 4.6875 -8.734375 L 3.929688 -10.613281 L 3.964844 -10.421875 L 4.15625 -10.042969 L 4.242188 -9.734375 L 4.660156 -9.070312 L 5.089844 -8.246094 L 5.613281 -7.445312 L 5.863281 -7.21875 L 5.394531 -7.871094 L 4.984375 -8.570312 L 4.265625 -10.074219 L 4.183594 -10.355469 L 4.183594 -10.113281 L 4.507812 -9.1875 L 5.046875 -7.890625 L 5.554688 -6.980469 L 6.085938 -6.28125 L 5.996094 -6.472656 L 5.765625 -6.785156 L 5.867188 -6.523438 L 5.972656 -6.417969 L 6.359375 -5.746094 L 6.667969 -5.277344 L 6.773438 -5.199219 L 6.25 -6.167969 L 5.976562 -6.792969 L 5.863281 -6.945312 L 5.679688 -7.433594 L 5.710938 -7.324219 L 6.753906 -5.863281 L 7.136719 -5.5 L 6.699219 -6.121094 L 6.101562 -7.117188 L 6.101562 -7.195312 L 6.132812 -6.847656 L 6.660156 -5.894531 L 6.847656 -5.644531 L 7.492188 -5.042969 L 7.042969 -5.640625 L 6.617188 -6.402344 L 5.945312 -7.199219 L 5.488281 -7.894531 L 5.488281 -7.773438 L 5.671875 -7.441406 L 6.414062 -6.359375 L 6.675781 -6.039062 L 7.378906 -5.359375 L 7.859375 -4.75 L 9.683594 -3.160156 L 10.175781 -2.863281 L 9.566406 -3.464844 L 9.039062 -3.867188 L 8.578125 -4.324219 L 8.378906 -4.4375 L 8.042969 -4.789062 L 9.433594 -3.683594 L 10.230469 -3.191406 L 10.632812 -3.03125 L 11.117188 -2.585938 L 10.910156 -2.679688 L 10.199219 -3.316406 L 9.449219 -3.863281 L 8.289062 -4.5625 L 7.835938 -4.917969 L 7.519531 -5.257812 L 7.523438 -5.148438 L 7.9375 -4.667969 L 8.601562 -4.050781 L 7.996094 -4.375 L 6.832031 -5.25 L 6.53125 -5.425781 L 6.449219 -5.535156 L 6.277344 -5.617188 L 5.84375 -6.050781 L 5.578125 -6.40625 L 6.078125 -6.0625 L 6.953125 -5.175781 L 6.261719 -6.179688 L 5.648438 -6.945312 L 5.226562 -7.367188 L 4.355469 -8.089844 L 3.917969 -8.605469 L 3.613281 -9.007812 L 3.421875 -9.417969 L 3.457031 -9.078125 L 4.179688 -7.871094 L 4.964844 -6.855469 L 5.167969 -6.683594 L 5.5 -6.253906 L 5.800781 -5.949219 L 4.589844 -8.121094 L 3.960938 -9.105469 L 3.652344 -9.691406 L 3.488281 -9.894531 L 3.082031 -10.746094 L 2.921875 -11.238281 L 2.921875 -10.972656 L 3.863281 -9.136719 L 4.960938 -7.507812 L 3.773438 -9.152344 L 2.746094 -10.792969 L 2.042969 -12.140625 L 1.730469 -12.949219 L 1.765625 -12.6875 L 2.714844 -10.167969 L 3.222656 -8.964844 L 3.605469 -8.328125 L 3.660156 -8.300781 L 2.625 -10.515625 L 2.207031 -11.59375 L 1.960938 -12.394531 L 1.871094 -12.992188 L 1.90625 -12.683594 L 2.488281 -10.824219 L 2.761719 -10.195312 L 3.003906 -9.792969 L 3.109375 -9.710938 L 2.125 -12.03125 L 1.265625 -13.742188 L 1.117188 -14.191406 L 1.117188 -14.375 L 1.117188 -13.671875 L 1.332031 -12.8125 L 1.5 -12.316406 L 2.203125 -10.664062 L 2.371094 -10.382812 L 1.652344 -12.332031 L 1.503906 -12.851562 L 1.425781 -13.476562 L 1.425781 -14.433594 L 1.316406 -15.730469 L 1.316406 -15.539062 L 1.546875 -15.15625 L 2.085938 -13.796875 L 2.382812 -12.90625 L 2.480469 -12.460938 L 3.082031 -10.71875 L 3.140625 -10.601562 L 3.21875 -10.574219 L 3.21875 -11.328125 L 3.179688 -11.574219 L 2.429688 -14.355469 L 2.097656 -15.832031 L 2.097656 -12.152344 L 2.199219 -11.449219 L 2.199219 -11.851562 L 2.117188 -12.347656 L 1.535156 -14.335938 L 1.402344 -14.644531 L 1.160156 -15.574219 L 1.0625 -15.769531 L 1.035156 -15.96875 L 1.082031 -14.875 L 1.746094 -11.96875 L 1.832031 -11.796875 L 1.832031 -13.023438 L 1.449219 -15.515625 L 1.449219 -16.023438 L 1.449219 -15.5625 L 1.765625 -14.507812 L 2.644531 -12.371094 L 2.992188 -11.605469 L 3.25 -11.253906 L 3.355469 -10.976562 L 3.320312 -11.304688 L 1.90625 -13.914062 L 1.710938 -14.351562 L 1.710938 -13.277344 L 1.933594 -12.339844 L 2.054688 -12.09375 L 2.207031 -11.566406 L 2.320312 -11.394531 L 2.320312 -12.382812 L 2.253906 -12.726562 L 2.253906 -12.34375 L 2.472656 -11.683594 L 2.625 -11.375 L 2.625 -11.882812 L 1.800781 -15.332031 L 1.683594 -16.335938 L 1.683594 -18.089844 L 1.839844 -18.820312 L 1.839844 -16.460938 L 2.097656 -13.886719 L 2.179688 -14.804688 L 2.179688 -19.375 L 2.230469 -19.511719 L 2.230469 -14.789062 L 2.058594 -18.542969 L 1.867188 -17.753906 L 1.683594 -16.699219 L 1.683594 -16.453125 L 1.597656 -16.148438 L 1.597656 -15.839844 L 1.515625 -15.402344 L 1.515625 -14.40625 L 1.460938 -14.527344 L 1.167969 -17.59375 L 1.167969 -19.144531 L 1.167969 -16.265625 L 1.347656 -15.199219 L 1.375 -14.621094 L 1.335938 -18.546875 L 1.335938 -18.355469 L 1.148438 -17.640625 L 0.984375 -16.65625 L 0.949219 -15.199219 L 0.949219 -15.625 L 0.878906 -15.765625 L 0.878906 -16.097656 L 0.808594 -16.519531 L 0.808594 -18.5 L 0.835938 -18.820312 L 0.910156 -18.871094 L 1.144531 -17.765625 L 1.207031 -16.851562 L 1.40625 -17.703125 L 1.523438 -18.824219 L 1.75 -19.925781 L 1.898438 -20.449219 L 2.308594 -21.320312 L 2.347656 -20.722656 L 2.347656 -17.441406 L 2.347656 -18.125 L 2.527344 -19.070312 L 2.558594 -19.851562 L 2.558594 -19.542969 L 2.476562 -19.296875 L 1.941406 -18.046875 L 1.738281 -17.433594 L 1.738281 -17.917969 L 2.039062 -18.773438 L 2.484375 -20.335938 L 2.507812 -20.238281 "
       transform="matrix(1,0,0,-1,0,0)"
       id="path1050" />
    <path
       style="fill:none;stroke-width:1;stroke-linecap:round;stroke-linejoin:round;stroke:rgb(0%,0%,0%);stroke-opacity:1;stroke-miterlimit:10;"
       d="M 2.027344 -18.21875 L 2.003906 -18.195312 L 2.003906 -21.011719 L 1.730469 -20.332031 L 0.925781 -17.59375 L 0.925781 -18.59375 L 0.976562 -19.039062 L 1.277344 -20.453125 L 1.59375 -22.449219 L 1.757812 -23.238281 L 1.8125 -23.316406 L 1.8125 -21.675781 L 1.746094 -21.21875 L 1.695312 -21.167969 L 1.613281 -20.730469 L 1.5625 -20.703125 L 1.082031 -19.585938 L 0.914062 -19.328125 L 0.914062 -20.007812 L 1.269531 -21.460938 L 1.503906 -22.175781 L 1.617188 -22.457031 L 2.105469 -23.136719 L 2.179688 -23.085938 L 2.222656 -20.441406 L 2.277344 -20.5 L 2.597656 -22.429688 L 2.707031 -23.617188 L 2.839844 -24.089844 L 2.953125 -24.382812 L 2.953125 -23.460938 L 2.664062 -22.042969 L 2.730469 -22.355469 L 2.980469 -22.964844 L 3.347656 -24.273438 L 3.324219 -24.566406 L 2.726562 -23.726562 L 2.4375 -23.175781 L 2.347656 -22.882812 L 2.347656 -23.394531 L 2.421875 -23.722656 L 2.964844 -25.371094 L 2.964844 -25.1875 L 2.859375 -24.90625 L 2.746094 -24.753906 L 2.007812 -23.179688 L 1.980469 -23.351562 L 2.050781 -23.628906 L 2.46875 -24.65625 L 2.46875 -20.796875 L 2.46875 -21.746094 L 2.550781 -22.242188 L 2.585938 -23.207031 L 2.546875 -22.582031 L 1.847656 -20.855469 L 1.847656 -21.09375 L 2.328125 -22.324219 L 2.746094 -23.90625 L 2.691406 -19.507812 L 2.640625 -19.480469 L 2.609375 -18.160156 L 2.609375 -23.273438 L 2.742188 -24.21875 L 2.808594 -24.597656 L 2.96875 -25.101562 L 3.042969 -25.207031 L 3.285156 -21 L 3.285156 -21.242188 L 3.542969 -22.230469 L 3.542969 -20.742188 L 3.542969 -21.164062 L 3.421875 -21.941406 L 3.382812 -22.621094 L 3.382812 -25.507812 L 3.546875 -26.136719 L 4.011719 -27.320312 L 4.121094 -27.460938 L 4.121094 -25.867188 L 3.871094 -24.828125 L 3.550781 -23.902344 L 3.46875 -23.453125 L 3.265625 -22.765625 L 3.300781 -23.554688 L 3.433594 -24.125 L 3.738281 -25.007812 L 3.699219 -24.414062 L 3.46875 -23.746094 L 3.511719 -24.476562 L 4.085938 -26.394531 L 3.96875 -26.191406 L 3.4375 -25.613281 L 2.738281 -24.65625 L 2.390625 -24.058594 L 2.425781 -24.363281 L 2.683594 -24.882812 L 3.484375 -26.246094 L 2.667969 -25.066406 L 2.476562 -24.574219 L 2.140625 -23.28125 L 2.085938 -23.230469 L 2.085938 -23.574219 L 2.496094 -24.617188 L 2.667969 -24.992188 L 3.027344 -25.523438 L 3.027344 -25.402344 L 2.582031 -24.550781 L 2.304688 -23.824219 L 2.0625 -23.417969 L 2.0625 -23.800781 L 2.300781 -24.550781 L 2.597656 -25.011719 L 3.945312 -26.417969 L 4.929688 -27.558594 L 5.066406 -27.90625 L 5.03125 -27.644531 L 4.34375 -26.519531 L 4.109375 -25.960938 L 4.59375 -26.917969 L 4.753906 -27.136719 L 4.863281 -27.46875 L 4.339844 -26.96875 L 3.746094 -26.253906 L 3.175781 -25.433594 L 3.175781 -25.792969 L 3.449219 -26.589844 L 3.78125 -27.171875 L 4.253906 -27.742188 L 4.800781 -28.21875 L 5.175781 -28.679688 L 5.175781 -28.492188 L 4.640625 -27.335938 L 4.445312 -26.769531 L 4.417969 -26.839844 L 4.628906 -27.261719 L 5.304688 -28.410156 L 4.855469 -27.855469 L 4.574219 -27.382812 L 4.574219 -27.5 L 5.070312 -28.164062 L 4.386719 -27.324219 L 4.304688 -27.183594 L 4.617188 -27.609375 L 4.769531 -27.722656 L 5.246094 -28.398438 L 5.296875 -28.398438 L 5.667969 -28.796875 L 6.097656 -29.144531 L 6.617188 -29.816406 L 6.105469 -29.484375 L 5.5625 -28.964844 L 6.277344 -29.691406 L 6.515625 -29.847656 L 6.960938 -30.296875 L 7.378906 -30.585938 L 7.6875 -30.914062 L 7.789062 -30.964844 L 7.789062 -30.917969 L 6.953125 -30.171875 L 6.679688 -29.785156 L 6.273438 -29.347656 L 5.679688 -28.914062 L 5.476562 -28.886719 L 5.257812 -28.777344 L 5.050781 -28.59375 "
       transform="matrix(1,0,0,-1,0,0)"
       id="path1052" />
    <path
       style="fill:none;stroke-width:1;stroke-linecap:round;stroke-linejoin:round;stroke:rgb(0%,0%,0%);stroke-opacity:1;stroke-miterlimit:10;"
       d="M 21.527344 -29.003906 C 16.570312 -31.347656 10.65625 -29.214844 8.320312 -24.242188 C 7.699219 -22.914062 7.375 -21.46875 7.375 -20 "
       transform="matrix(1,0,0,-1,0,0)"
       id="path1054" />
    <path
       style="fill:none;stroke-width:1;stroke-linecap:butt;stroke-linejoin:round;stroke:rgb(0%,0%,0%);stroke-opacity:1;stroke-miterlimit:10;"
       d="M 7.699219 -15.1875 L 7.699219 -23.210938 "
       transform="matrix(1,0,0,-1,0,0)"
       id="path1056" />
    <path
       style="fill:none;stroke-width:1;stroke-linecap:butt;stroke-linejoin:round;stroke:rgb(0%,0%,0%);stroke-opacity:1;stroke-miterlimit:10;"
       d="M 7.699219 -15.1875 C 7.699219 -9.871094 11.996094 -5.558594 17.300781 -5.558594 C 22.601562 -5.558594 26.898438 -9.871094 26.898438 -15.1875 C 26.898438 -15.328125 26.898438 -15.46875 26.890625 -15.609375 "
       transform="matrix(1,0,0,-1,0,0)"
       id="path1058" />
    <path
       style="fill:none;stroke-width:1;stroke-linecap:round;stroke-linejoin:round;stroke:rgb(0%,0%,0%);stroke-opacity:1;stroke-miterlimit:10;"
       d="M 7.304688 -18.722656 L 7.304688 -17.402344 L 7.304688 -20.394531 L 7.171875 -21.285156 L 7.136719 -21.996094 "
       transform="matrix(1,0,0,-1,0,0)"
       id="path1060" />
    <path
       style="fill:none;stroke-width:1;stroke-linecap:round;stroke-linejoin:round;stroke:rgb(0%,0%,0%);stroke-opacity:1;stroke-miterlimit:10;"
       d="M 7.394531 -22.082031 L 7.394531 -22.941406 L 7.574219 -23.339844 L 7.664062 -23.691406 L 7.980469 -24.273438 L 8.140625 -24.792969 L 8.476562 -25.480469 L 9.085938 -26.496094 L 9.710938 -27.179688 L 10.214844 -27.550781 L 10.015625 -27.433594 L 9.484375 -26.902344 L 9.011719 -26.011719 L 9.011719 -25.910156 L 9.15625 -25.941406 L 9.707031 -26.347656 L 10.214844 -26.890625 L 9.773438 -26.511719 L 9.460938 -26.167969 L 9.363281 -26.132812 L 8.679688 -25.316406 "
       transform="matrix(1,0,0,-1,0,0)"
       id="path1062" />
    <path
       style="fill:none;stroke-width:1;stroke-linecap:round;stroke-linejoin:round;stroke:rgb(0%,0%,0%);stroke-opacity:1;stroke-miterlimit:10;"
       d="M 9.382812 -26.222656 L 9.410156 -26.4375 L 9.800781 -26.855469 L 10.386719 -27.621094 L 10.683594 -27.917969 L 11.695312 -28.570312 L 12.445312 -29.164062 L 13.226562 -29.511719 L 14.746094 -29.996094 L 15.773438 -30.050781 L 16.425781 -30.160156 "
       transform="matrix(1,0,0,-1,0,0)"
       id="path1064" />
    <path
       style="fill:none;stroke-width:1;stroke-linecap:round;stroke-linejoin:round;stroke:rgb(0%,0%,0%);stroke-opacity:1;stroke-miterlimit:10;"
       d="M 7.648438 -12.617188 L 7.648438 -15.945312 L 7.578125 -16.085938 L 7.511719 -17.367188 L 7.429688 -17.828125 L 7.429688 -13.925781 L 7.691406 -12.695312 L 7.875 -12.234375 L 7.875 -13.253906 L 7.699219 -14.246094 L 7.53125 -15.882812 L 7.472656 -17.585938 L 7.472656 -17.300781 L 7.402344 -17.160156 L 7.324219 -16.523438 L 7.285156 -14.535156 L 7.378906 -14.195312 L 7.535156 -12.875 L 7.535156 -13.449219 L 7.394531 -14.203125 L 7.359375 -14.714844 L 7.359375 -13.703125 L 7.753906 -11.929688 L 8.136719 -10.980469 "
       transform="matrix(1,0,0,-1,0,0)"
       id="path1066" />
    <path
       style="fill:none;stroke-width:1;stroke-linecap:round;stroke-linejoin:round;stroke:rgb(0%,0%,0%);stroke-opacity:1;stroke-miterlimit:10;"
       d="M 8.136719 -10.980469 L 8.136719 -10.46875 L 8.53125 -9.632812 L 8.835938 -9.128906 L 8.835938 -9.277344 L 8.28125 -10.609375 L 7.996094 -11.464844 L 7.816406 -12.542969 L 7.816406 -12.28125 L 7.960938 -11.621094 L 8.1875 -10.90625 L 8.402344 -10.433594 L 8.050781 -11.039062 L 7.789062 -11.660156 L 7.523438 -12.125 L 7.5625 -11.703125 L 7.800781 -11.109375 L 8.394531 -10.105469 L 8.699219 -9.730469 L 9.242188 -9.308594 L 9.550781 -8.992188 L 8.621094 -10.441406 L 8.335938 -11.015625 L 8.492188 -10.582031 L 8.628906 -10.382812 L 8.503906 -11.328125 L 8.335938 -11.773438 L 8.335938 -11.128906 L 8.601562 -9.976562 L 9.039062 -9.230469 L 9.75 -8.332031 L 10.371094 -7.375 L 10.972656 -6.683594 L 10.972656 -6.742188 L 10.429688 -7.488281 L 8.984375 -9.367188 L 8.902344 -9.582031 L 9.335938 -9.125 L 10.660156 -7.496094 L 11.25 -6.996094 L 11.660156 -6.789062 L 11.320312 -7.0625 L 10.386719 -8.152344 L 9.925781 -8.773438 L 10.230469 -8.382812 L 11.367188 -7.195312 L 11.175781 -7.230469 L 9.613281 -8.578125 L 9.316406 -8.78125 L 9.015625 -9.058594 L 8.804688 -9.371094 L 8.835938 -9.226562 L 9.171875 -8.777344 L 9.882812 -7.914062 L 10.214844 -7.609375 L 10.601562 -7.367188 L 11.21875 -6.859375 L 11.816406 -6.511719 L 12.273438 -6.164062 L 13.253906 -5.609375 L 13.359375 -5.582031 L 13.359375 -5.632812 L 13.097656 -5.835938 L 11.792969 -6.78125 L 11.28125 -7.199219 L 11.0625 -7.445312 L 11.441406 -7.246094 L 12.449219 -6.433594 L 12.90625 -6.175781 L 13.378906 -6.011719 L 13.484375 -5.929688 L 13.183594 -6.023438 L 13.015625 -6.132812 L 13.230469 -5.957031 L 13.710938 -5.695312 L 14.292969 -5.535156 L 15.078125 -5.21875 L 14.488281 -5.441406 L 13.667969 -5.875 L 13.5 -6.011719 L 13.234375 -6.359375 L 14.238281 -5.894531 L 14.628906 -5.78125 L 15.34375 -5.46875 L 15.421875 -5.390625 L 15.847656 -5.191406 L 16.484375 -5.101562 L 17.273438 -5.070312 L 15.433594 -5.097656 L 14.878906 -5.265625 L 16.328125 -5.265625 L 17.332031 -5.40625 L 18.816406 -5.40625 L 18.710938 -5.40625 L 18.140625 -5.132812 L 17.777344 -5.078125 L 16.445312 -5.078125 L 17.289062 -5.109375 L 18.566406 -5.367188 L 19.210938 -5.417969 L 20.289062 -5.660156 L 20.632812 -5.820312 "
       transform="matrix(1,0,0,-1,0,0)"
       id="path1068" />
    <path
       style="fill:none;stroke-width:1;stroke-linecap:butt;stroke-linejoin:round;stroke:rgb(0%,0%,0%);stroke-opacity:1;stroke-miterlimit:10;"
       d="M 29.300781 -17.59375 C 29.300781 -10.503906 23.570312 -4.757812 16.5 -4.757812 "
       transform="matrix(1,0,0,-1,0,0)"
       id="path1070" />
    <path
       style="fill:none;stroke-width:1;stroke-linecap:butt;stroke-linejoin:round;stroke:rgb(0%,0%,0%);stroke-opacity:1;stroke-miterlimit:10;"
       d="M 26.890625 -15.609375 L 26.898438 -28.023438 "
       transform="matrix(1,0,0,-1,0,0)"
       id="path1072" />
    <path
       style="fill:none;stroke-width:1;stroke-linecap:round;stroke-linejoin:round;stroke:rgb(0%,0%,0%);stroke-opacity:1;stroke-miterlimit:10;"
       d="M 27.039062 -16.414062 L 27.019531 -19.027344 L 27.21875 -19.464844 L 27.429688 -19.65625 L 28.089844 -19.65625 L 28.28125 -19.765625 L 28.351562 -19.886719 L 28.386719 -20.0625 L 28.386719 -20.753906 L 28.179688 -21.296875 L 28.082031 -21.71875 L 28.046875 -21.941406 L 28.046875 -22.496094 L 28.15625 -22.703125 L 28.300781 -22.847656 L 28.679688 -22.847656 L 28.875 -22.648438 L 28.910156 -22.5625 L 29.136719 -21.183594 L 29.136719 -20.292969 L 29.113281 -20.75 L 29.066406 -21.03125 L 28.71875 -22.46875 L 28.628906 -21.792969 L 28.628906 -21.195312 L 28.390625 -21.824219 L 28.351562 -22.023438 L 28.351562 -22.3125 L 28.621094 -22.4375 L 28.6875 -22.4375 L 28.746094 -22.128906 L 28.746094 -21.78125 L 28.796875 -21.335938 L 28.820312 -20.136719 L 28.820312 -21.324219 L 28.742188 -21.558594 L 28.554688 -21.855469 L 28.515625 -22.113281 L 28.515625 -22.488281 L 28.605469 -22.742188 L 28.449219 -22.621094 L 28.371094 -22.410156 L 28.351562 -21.628906 L 28.765625 -20.613281 L 28.765625 -19.929688 L 28.691406 -19.21875 L 28.238281 -19.21875 L 28.148438 -19.164062 L 27.34375 -19.148438 L 27.394531 -19.148438 L 27.707031 -19.402344 L 27.902344 -19.457031 L 28.171875 -19.472656 L 28.578125 -19.585938 L 28.683594 -19.742188 L 28.71875 -20.121094 L 28.769531 -20.15625 L 28.9375 -19.550781 L 29.0625 -18.945312 L 29.0625 -18.164062 L 28.925781 -17.78125 L 28.90625 -17.597656 L 28.90625 -19.585938 L 28.96875 -19.84375 L 28.988281 -20.121094 L 28.988281 -17.828125 L 28.824219 -17.039062 L 28.753906 -16.785156 L 28.679688 -16.652344 L 28.648438 -16.988281 L 28.632812 -19.226562 L 28.410156 -18.5 L 28.265625 -17.753906 L 28.144531 -16.792969 L 28.144531 -16.457031 L 28.070312 -15.796875 L 28.039062 -15.816406 L 28.015625 -15.910156 L 27.683594 -18.863281 L 27.59375 -19.003906 L 27.578125 -19.117188 L 27.53125 -18.734375 L 27.53125 -17.101562 L 27.511719 -16.902344 L 27.480469 -16.902344 L 27.121094 -19.214844 L 27.183594 -19.035156 L 27.519531 -18.457031 L 27.769531 -18.117188 L 27.84375 -18.0625 L 28.027344 -18.042969 L 28.046875 -18.082031 L 28.1875 -18.621094 L 28.1875 -18.976562 L 28.273438 -18.996094 L 28.4375 -18.789062 L 28.015625 -19.066406 L 27.589844 -19.410156 L 27.4375 -19.425781 L 27.4375 -18.425781 L 27.464844 -18.261719 L 27.601562 -17.878906 L 27.785156 -17.609375 L 28.007812 -17.527344 L 28.15625 -17.527344 L 28.246094 -17.832031 L 28.246094 -18.515625 L 28.175781 -18.65625 L 28.089844 -18.730469 L 28.058594 -18.496094 L 28.058594 -16.046875 L 28.058594 -17.488281 L 27.957031 -18.453125 L 27.957031 -16.34375 L 27.898438 -16.140625 L 27.898438 -15.75 L 27.859375 -15.621094 L 27.800781 -15.824219 L 27.550781 -17.617188 L 27.488281 -16.792969 L 27.488281 -13.566406 L 27.488281 -15.164062 L 27.433594 -15.738281 L 27.433594 -16.683594 L 27.433594 -14.570312 L 27.40625 -14.257812 L 27.371094 -14.203125 L 27.390625 -16.882812 L 27.390625 -14.484375 L 27.320312 -14.484375 L 27.199219 -15.152344 L 27.148438 -15.902344 L 27.148438 -16.621094 L 27.148438 -13.753906 L 27.195312 -13.097656 L 27.261719 -13.117188 L 27.710938 -14.160156 L 27.90625 -15.007812 L 28.03125 -16.132812 L 28.15625 -16.785156 L 28.390625 -17.554688 L 28.410156 -17.054688 L 28.042969 -14.359375 L 27.878906 -13.96875 L 27.90625 -14.4375 L 28.011719 -14.738281 L 28.039062 -14.945312 L 28.4375 -16.09375 L 28.703125 -16.695312 L 28.796875 -16.847656 L 28.796875 -15.953125 L 28.703125 -15.488281 L 28.585938 -14.597656 L 28.542969 -14.464844 L 28.464844 -13.816406 L 28.464844 -14.101562 L 28.683594 -15.117188 L 28.730469 -15.558594 L 28.703125 -15.265625 L 28.644531 -15.058594 L 28.410156 -14.457031 L 27.863281 -12.667969 L 27.808594 -12.578125 L 27.808594 -13.296875 L 27.84375 -13.648438 L 28.132812 -15.28125 L 28.132812 -15.027344 L 28.039062 -14.609375 L 27.855469 -14.109375 L 27.597656 -13.140625 L 27.621094 -13.320312 L 28.148438 -14.621094 L 28.5625 -15.800781 L 28.5625 -15.585938 L 28.4375 -15.367188 L 27.933594 -14.222656 L 27.855469 -14.121094 L 27.800781 -15.109375 L 27.730469 -15.558594 L 27.730469 -15.453125 L 27.730469 -15.871094 L 27.703125 -14.300781 L 27.703125 -14.429688 L 27.960938 -15.007812 L 28.578125 -16.132812 L 28.578125 -15.625 L 28.546875 -15.375 L 28.304688 -14.707031 L 27.96875 -13.949219 L 27.378906 -12.90625 L 26.980469 -11.980469 L 26.761719 -10.617188 L 26.761719 -11.007812 L 26.949219 -12.027344 L 27.15625 -13.742188 L 27.351562 -14.824219 L 27.367188 -14.296875 L 27.269531 -13.367188 L 27.097656 -12.457031 L 26.832031 -11.601562 L 26.414062 -10.53125 L 26.839844 -10.96875 L 27.207031 -11.421875 L 27.554688 -11.980469 L 27.886719 -13.023438 L 27.46875 -11.925781 L 27.195312 -11.382812 L 27.195312 -11.523438 L 27.386719 -12.023438 L 27.660156 -12.882812 L 27.632812 -12.496094 L 27.496094 -11.898438 L 27.28125 -11.171875 L 27.242188 -11.09375 L 27.242188 -11.507812 L 27.382812 -12.203125 L 26.484375 -10.875 L 26.070312 -9.8125 L 26.070312 -9.988281 L 26.53125 -11.117188 L 26.941406 -12.402344 L 27.382812 -13.625 L 27.382812 -13.496094 L 27.304688 -13.238281 L 27.140625 -12.90625 L 27.078125 -12.699219 L 26.808594 -12.078125 L 26.625 -11.53125 L 26.101562 -10.265625 L 26.101562 -10.195312 L 26.125 -10.410156 L 26.320312 -10.851562 L 26.402344 -11.144531 L 26.753906 -12.074219 L 27.246094 -13.21875 L 27.316406 -13.578125 L 27.382812 -13.578125 L 27.382812 -13.613281 L 27.363281 -13.429688 L 27.273438 -13.269531 L 27.042969 -12.660156 L 26.828125 -12.308594 L 26.828125 -12.691406 L 26.957031 -13.3125 L 26.957031 -13.507812 L 26.988281 -13.507812 L 26.988281 -11.417969 L 26.0625 -10.214844 L 25.835938 -9.800781 L 25.519531 -8.984375 L 25.582031 -9.125 L 26.023438 -9.816406 L 26.171875 -9.988281 L 26.492188 -10.527344 L 26.722656 -10.867188 L 26.914062 -11.082031 L 26.816406 -10.808594 L 26.34375 -9.984375 L 26.730469 -10.257812 L 26.683594 -10.09375 L 26.566406 -9.9375 L 26.417969 -9.898438 L 26.28125 -9.8125 L 25.238281 -8.976562 L 24.859375 -8.535156 L 24.679688 -8.207031 L 24.59375 -8.140625 L 24.574219 -8.085938 L 24.523438 -8.070312 L 25.386719 -9.328125 L 26.101562 -10.734375 L 26.207031 -11.019531 L 26.164062 -10.855469 L 25.871094 -10.316406 L 25.316406 -9.449219 L 25.046875 -9.101562 L 24.859375 -8.917969 L 24.496094 -8.394531 L 23.996094 -7.792969 L 23.375 -7.1875 L 23.492188 -7.289062 L 23.90625 -7.765625 L 24.492188 -8.625 L 24.652344 -8.800781 L 24.683594 -8.800781 L 24.664062 -8.320312 L 24.519531 -7.902344 L 23.257812 -7.128906 L 22.152344 -6.316406 L 21.347656 -6.007812 L 20.789062 -5.894531 L 20.980469 -5.894531 L 21.125 -5.957031 L 21.578125 -6.253906 L 21.742188 -6.328125 L 22.511719 -6.855469 L 22.621094 -6.890625 L 22.671875 -6.957031 L 22.472656 -6.9375 L 21.824219 -6.605469 L 21.46875 -6.484375 L 21.269531 -6.339844 L 21.144531 -6.304688 L 21.128906 -6.253906 L 21.359375 -6.253906 L 21.65625 -6.359375 L 22.449219 -6.746094 L 24.996094 -8.816406 L 25.234375 -9.054688 L 25.417969 -9.296875 L 26.789062 -11.253906 L 27.242188 -12.214844 L 27.476562 -13.007812 L 27.519531 -13.332031 L 27.546875 -14.65625 L 27.648438 -15.554688 L 27.667969 -16.457031 L 27.667969 -15.894531 L 27.640625 -15.6875 L 27.40625 -14.734375 L 27.128906 -12.828125 L 26.964844 -12.28125 L 26.722656 -11.796875 L 26.609375 -11.660156 L 26.136719 -10.816406 L 25.855469 -10.417969 L 25.636719 -10.03125 L 25.476562 -9.800781 L 25.410156 -9.753906 L 25.167969 -9.335938 L 25.097656 -9.265625 L 24.824219 -8.785156 L 24.703125 -8.433594 L 24.976562 -8.476562 L 25.214844 -8.664062 L 25.578125 -9.054688 L 25.746094 -9.355469 L 25.78125 -9.484375 L 25.78125 -9.425781 L 25.550781 -9.148438 L 25.230469 -8.652344 L 25.863281 -9.386719 L 26.316406 -9.992188 L 26.730469 -10.699219 L 27.191406 -11.648438 L 27.335938 -12.210938 L 27.550781 -13.5 L 27.550781 -15.402344 L 27.5 -15.691406 L 27.445312 -16.40625 L 27.445312 -17.792969 L 27.570312 -17.289062 L 27.8125 -16 L 27.929688 -15.558594 L 28.171875 -16.351562 L 28.417969 -17.488281 "
       transform="matrix(1,0,0,-1,0,0)"
       id="path1074" />
    <path
       style="fill:none;stroke-width:1;stroke-linecap:round;stroke-linejoin:round;stroke:rgb(0%,0%,0%);stroke-opacity:1;stroke-miterlimit:10;"
       d="M 27.96875 -18.222656 L 27.96875 -18.863281 "
       transform="matrix(1,0,0,-1,0,0)"
       id="path1076" />
    <path
       style="fill:none;stroke-width:1;stroke-linecap:round;stroke-linejoin:round;stroke:rgb(0%,0%,0%);stroke-opacity:1;stroke-miterlimit:10;"
       d="M 27.28125 -19.117188 L 27.28125 -22.851562 L 27.328125 -23.265625 L 27.328125 -25.941406 L 27.222656 -27.09375 L 27.222656 -26.722656 L 27.328125 -26.085938 L 27.574219 -24.980469 L 27.816406 -23.035156 L 27.84375 -19.960938 L 27.796875 -19.414062 L 27.796875 -24.832031 L 27.691406 -25.8125 L 27.621094 -24.300781 L 27.621094 -19.859375 L 27.542969 -19.613281 L 27.507812 -19.628906 L 27.058594 -22.679688 L 27.027344 -23.5625 L 27.507812 -22.082031 L 27.746094 -21.082031 L 27.902344 -20.613281 L 28.128906 -19.621094 L 28.21875 -19.351562 L 28.277344 -19.445312 L 28.335938 -19.941406 L 28.335938 -21.511719 L 28.402344 -19.765625 L 28.402344 -21.796875 L 28.3125 -22.453125 L 28.238281 -22.675781 L 28.195312 -22.9375 L 28.058594 -24.117188 L 27.71875 -24.953125 L 27.742188 -24.785156 L 28.25 -23.796875 L 28.703125 -22.757812 L 28.722656 -22.285156 L 28.722656 -23.230469 L 28.464844 -24.304688 L 28.195312 -25.042969 L 27.804688 -25.734375 L 27.359375 -26.707031 L 27.382812 -26.542969 L 27.722656 -25.632812 L 27.789062 -25.332031 L 28.242188 -23.964844 L 28.242188 -24.039062 L 28.050781 -24.546875 L 27.25 -26.394531 L 27.09375 -26.921875 L 27.035156 -27.265625 L 26.90625 -27.636719 L 27.015625 -26.230469 L 27.015625 -24.042969 L 26.890625 -23.566406 L 26.890625 -23.734375 L 26.964844 -24.085938 L 27.011719 -24.179688 L 27.207031 -25.019531 L 27.355469 -25.386719 L 27.40625 -25.386719 L 27.847656 -23.6875 L 28.1875 -21.730469 L 28.308594 -20.753906 L 28.335938 -19.121094 L 28.378906 -18.675781 L 28.378906 -19.996094 L 28.3125 -20.644531 L 28.128906 -21.652344 L 28.101562 -22.8125 L 28.101562 -21.53125 L 27.988281 -20.242188 L 27.945312 -20.386719 L 27.945312 -20.644531 L 27.851562 -21.527344 L 27.945312 -18.867188 L 28.09375 -17.265625 L 28.261719 -17.933594 L 28.402344 -19.007812 L 28.382812 -22.613281 "
       transform="matrix(1,0,0,-1,0,0)"
       id="path1078" />
  </g>
</svg>
