<?xml version="1.0" encoding="UTF-8" standalone="no"?>
<svg
   xmlns:dc="http://purl.org/dc/elements/1.1/"
   xmlns:cc="http://creativecommons.org/ns#"
   xmlns:rdf="http://www.w3.org/1999/02/22-rdf-syntax-ns#"
   xmlns:svg="http://www.w3.org/2000/svg"
   xmlns="http://www.w3.org/2000/svg"
   width="108.15037pt"
   height="35.513779pt"
   viewBox="0 0 108.15037 35.513779"
   version="1.2"
   id="svg918">
  <metadata
     id="metadata922">
    <rdf:RDF>
      <cc:Work
         rdf:about="">
        <dc:format>image/svg+xml</dc:format>
        <dc:type
           rdf:resource="http://purl.org/dc/dcmitype/StillImage" />
        <dc:title></dc:title>
      </cc:Work>
    </rdf:RDF>
  </metadata>
  <defs
     id="defs839">
    <clipPath
       id="clip1">
      <path
         d="M 47,19 H 59 V 35.390625 H 47 Z m 0,0"
         id="path833" />
    </clipPath>
    <clipPath
       id="clip2">
      <path
         d="m 77,15 h 7.722656 V 31 H 77 Z m 0,0"
         id="path836" />
    </clipPath>
  </defs>
  <g
     id="surface5331"
     transform="translate(0,0.00188046)">
    <path
       style="fill:none;stroke:#000000;stroke-width:1;stroke-linecap:butt;stroke-linejoin:round;stroke-miterlimit:10;stroke-opacity:1"
       d="m 93.104243,34.425031 c 7.070317,0 12.800777,-5.746093 12.800777,-12.835937"
       id="path857" />
    <path
       style="fill:none;stroke:#000000;stroke-width:1;stroke-linecap:butt;stroke-linejoin:round;stroke-miterlimit:10;stroke-opacity:1"
       d="m 105.90502,18.354719 c 0,-7.089844 -5.73046,-12.8359377 -12.800777,-12.8359377"
       id="path859" />
    <path
       style="fill:none;stroke:#000000;stroke-width:1;stroke-linecap:butt;stroke-linejoin:round;stroke-miterlimit:10;stroke-opacity:1"
       d="M 105.90502,21.565657 V 18.354719"
       id="path861" />
    <path
       style="fill:none;stroke:#000000;stroke-width:2;stroke-linecap:round;stroke-linejoin:round;stroke-miterlimit:10;stroke-opacity:1"
       d="m 98.705805,27.983625 6.398435,6.417969"
       id="path863" />
    <path
       style="fill:none;stroke:#000000;stroke-width:1;stroke-linecap:round;stroke-linejoin:round;stroke-miterlimit:10;stroke-opacity:1"
       d="m 93.104243,31.194563 c 1.894531,0 3.746094,-0.566406 5.324219,-1.617188"
       id="path865" />
    <path
       style="fill:none;stroke:#000000;stroke-width:1;stroke-linecap:butt;stroke-linejoin:round;stroke-miterlimit:10;stroke-opacity:1"
       d="m 93.104243,5.5187813 c -5.300781,0 -9.601562,4.308594 -9.601562,9.6249997"
       id="path867" />
    <path
       style="fill:none;stroke:#000000;stroke-width:1;stroke-linecap:butt;stroke-linejoin:round;stroke-miterlimit:10;stroke-opacity:1"
       d="m 83.502681,15.143781 v 6.421876"
       id="path869" />
    <path
       style="fill:none;stroke:#000000;stroke-width:1;stroke-linecap:butt;stroke-linejoin:round;stroke-miterlimit:10;stroke-opacity:1"
       d="m 83.502681,21.565657 c 0,5.316406 4.300781,9.628906 9.601562,9.628906"
       id="path871" />
    <path
       style="fill:none;stroke:#000000;stroke-width:1;stroke-linecap:butt;stroke-linejoin:round;stroke-miterlimit:10;stroke-opacity:1"
       d="M 96.123774,0.87425028 95.342524,4.1750313"
       id="path873" />
    <path
       style="fill:none;stroke:#000000;stroke-width:1;stroke-linecap:butt;stroke-linejoin:round;stroke-miterlimit:10;stroke-opacity:1"
       d="m 97.256587,4.6398753 0.789062,-3.289062"
       id="path875" />
    <path
       style="fill:none;stroke:#000000;stroke-width:1;stroke-linecap:butt;stroke-linejoin:round;stroke-miterlimit:10;stroke-opacity:1"
       d="m 93.104243,34.401594 c -8.835938,0 -16,-7.183594 -16,-16.046875 0,-8.8632807 7.164062,-16.0468747 16,-16.0468747 0.882812,0 1.761719,0.074219 2.628906,0.21875"
       id="path877" />
    <path
       style="fill:none;stroke:#000000;stroke-width:1;stroke-linecap:round;stroke-linejoin:round;stroke-miterlimit:10;stroke-opacity:1"
       d="m 98.166743,3.1594073 c 1.253906,0.359374 2.464847,0.871093 3.597657,1.527343"
       id="path879" />
    <path
       style="fill:none;stroke:#000000;stroke-width:1;stroke-linecap:butt;stroke-linejoin:round;stroke-miterlimit:10;stroke-opacity:1"
       d="m 80.303462,15.143781 v 6.421876"
       id="path881" />
    <path
       style="fill:none;stroke:#000000;stroke-width:1;stroke-linecap:butt;stroke-linejoin:round;stroke-miterlimit:10;stroke-opacity:1"
       d="m 80.303462,21.565657 c 0,6.417968 3.199219,9.628906 6.402343,11.230468 3.199219,1.605469 6.398438,1.605469 6.398438,1.605469"
       id="path883" />
    <path
       style="fill:none;stroke:#000000;stroke-width:1;stroke-linecap:butt;stroke-linejoin:round;stroke-miterlimit:10;stroke-opacity:1"
       d="m 80.303462,15.143781 c 0,-6.4179677 6.402343,-12.8359367 12.800781,-12.8359367"
       id="path885" />
    <path
       style="fill:none;stroke:#000000;stroke-width:1;stroke-linecap:round;stroke-linejoin:round;stroke-miterlimit:10;stroke-opacity:1"
       d="m 79.260493,15.151594 v 1.917969 l 0.07422,0.570312 v 0.894532 l 0.06641,0.625 0.05078,0.05469 0.03906,-1.019531 0.320312,-2.582032 0.121094,-0.738281 0.140625,-0.371093 0.04297,-0.308594 0.0625,-0.09766 0.242187,-1.0625 v 0.742187 l -0.144531,0.820314 -0.300781,1.414062 -0.273438,1.007812 -0.199218,1.132813 v 2.652344 -5.128907 l 0.07812,0.460938 0.08984,1.503906 0.04687,2.625 0.07031,1.113282 0.02344,-3.3125 0.125,-0.851563 v -1.175781 l 0.261719,1.632812 0.07422,1.003906 v 2.710938 l -0.03906,-1.574219 -0.08203,-0.6875 v -1.386719 1.277344 l -0.09375,0.375 v 0.445313 l -0.269531,2.367187 v 2.003906 -1.628906 l -0.05078,-0.523437 v -3.578125 l -0.09766,-1.429688 -0.08984,-0.410156 v 5.792969 l 0.171876,1.371093 0.167968,0.484376 0.164063,0.742187 v -2.222656 l -0.277344,-1.703125 -0.02344,2.675781 0.03516,0.585937 0.05078,0.05469 v -4.53125 l -0.105469,-1.046875 -0.34375,-1.992187 -0.140625,-0.5 h -0.105469 l -0.03906,0.191404 -0.09375,1.367187 v 3.710938 l 0.179688,0.992187 0.160156,0.390625 v -3.382812 l -0.101561,-1.75 v -2.53125 3.648437 l -0.05078,1.132813 -0.140625,1.433593 v 1.046876 l -0.04687,-2.027344 -0.05469,-0.605469 v -4.144531 l 0.265626,-2.3125 0.28125,-1.546875 v 1.402343 l -0.328126,2.441407 -0.03906,1.503906 V 16.2805 l 0.261719,-2.621093 0.304687,-1.484376 0.496094,-1.621093 v 0.933593 L 79.84253,13.034407 79.682374,14.1555 v 1.578125 -0.816406 l 0.191406,-1.644531 0.207031,-1.363281 0.1875,-0.710938 0.21875,-0.496094 -0.04297,0.730469 -0.441406,1.804687 -0.179688,0.980469 v -0.734375 l 0.738281,-2.707031 0.113281,-0.234375 -0.113281,0.625 -0.375,1.464844 v -0.285156 l 0.113281,-0.589844 0.484376,-1.570313 0.292968,-0.7734367 -0.04297,0.492187 -0.378907,1.2421877 -0.132812,0.667969 -0.121094,1.050781 0.04297,-0.910157 0.363281,-1.378906 0.542969,-1.3789057 0.25,-0.449219 0.285156,-0.347656 -0.59375,1.09375 -0.757812,1.8789057 0.03516,-0.191406 0.191406,-0.378906 0.08594,-0.308594 0.417968,-0.6640627 0.429688,-0.824218 0.523437,-0.800782 0.25,-0.226562 -0.46875,0.652344 -0.410156,0.699218 -0.71875,1.5039067 -0.08203,0.28125 V 10.87425 l 0.324218,-0.9257807 0.539063,-1.296875 0.507813,-0.910156 0.53125,-0.699219 -0.08984,0.191406 -0.230469,0.3125 0.101563,-0.261718 0.105468,-0.105469 0.386719,-0.671875 0.308594,-0.46875 0.105469,-0.078125 -0.523438,0.96875 -0.273438,0.625 -0.113281,0.152343 -0.183593,0.488282 0.03125,-0.109375 1.042968,-1.460938 0.382813,-0.363281 -0.4375,0.621094 -0.597657,0.996094 v 0.078124 l 0.03125,-0.347656 0.527344,-0.953125 0.1875,-0.25 0.644532,-0.601562 -0.449219,0.597656 -0.425781,0.761719 -0.671876,0.796875 -0.457031,0.695312 v -0.121093 l 0.183594,-0.332032 0.742187,-1.082031 0.261719,-0.320313 0.703125,-0.679687 0.480469,-0.609375 1.824219,-1.589844 0.492187,-0.296875 -0.609375,0.601563 -0.527344,0.402344 -0.460937,0.457031 -0.199219,0.113281 -0.335937,0.351562 1.390625,-1.105468 0.796875,-0.492188 0.402343,-0.160156 0.484376,-0.445312 -0.207032,0.09375 -0.710937,0.636718 -0.75,0.546875 -1.160157,0.699219 -0.453124,0.355469 -0.316407,0.339843 0.0039,-0.109374 0.414062,-0.480469 0.664062,-0.617188 -0.605468,0.324219 -1.164063,0.875 -0.300781,0.175781 -0.08203,0.109375 -0.171875,0.082032 -0.433594,0.433593 -0.265625,0.355469 0.5,-0.34375 0.875,-0.886719 -0.691406,1.003907 -0.613281,0.765624 -0.421876,0.421876 -0.871093,0.722656 -0.4375,0.515625 -0.304688,0.402343 -0.191406,0.4101567 0.03516,-0.3398437 0.722657,-1.207031 0.785156,-1.015625 0.203125,-0.171875 0.332031,-0.429688 0.300781,-0.304687 -1.210937,2.171875 -0.628906,0.984375 -0.308594,0.5859367 -0.164063,0.203125 -0.40625,0.851563 -0.160156,0.492187 v -0.265625 l 0.941406,-1.8359367 1.097657,-1.628907 -1.1875,1.644532 -1.027344,1.6406247 -0.703125,1.347656 -0.3125,0.808594 0.03516,-0.261719 0.949219,-2.519531 0.507812,-1.2031247 0.382813,-0.636719 0.05469,-0.027344 -1.035156,2.2148437 -0.417969,1.078125 -0.246093,0.800781 -0.08984,0.597657 0.03516,-0.308594 0.582031,-1.859375 0.273438,-0.628907 0.242187,-0.402343 0.105469,-0.08203 -0.984375,2.320312 -0.859375,1.710938 -0.148437,0.449218 v 0.183594 -0.703125 l 0.214843,-0.859375 0.167969,-0.496094 0.703125,-1.652344 0.167969,-0.28125 -0.71875,1.949219 -0.148438,0.519531 -0.07813,0.625 v 0.957032 l -0.109375,1.296875 v -0.191407 l 0.230469,-0.382812 0.539063,-1.359375 0.296874,-0.890625 0.09766,-0.445312 0.601562,-1.742188 0.05859,-0.117188 0.07813,-0.02734 v 0.753906 l -0.03906,0.246094 -0.75,2.78125 -0.332032,1.476562 v -3.679687 l 0.101563,-0.703125 v 0.402343 l -0.08203,0.496091 -0.582032,1.988282 -0.132812,0.308593 -0.242188,0.929688 -0.09766,0.195312 -0.02734,0.199219 0.04687,-1.09375 0.664063,-2.90625 0.08594,-0.171875 v 1.226563 l -0.382812,2.492187 v 0.507813 -0.460938 l 0.316406,-1.054688 0.878906,-2.136718 0.347657,-0.765625 0.257812,-0.351563 0.105469,-0.277344 -0.03516,0.328126 -1.414062,2.609374 -0.195312,0.4375 v -1.074218 l 0.222656,-0.9375 0.121094,-0.246094 0.152343,-0.527344 0.113281,-0.171875 v 0.988281 l -0.06641,0.34375 v -0.382812 l 0.21875,-0.660156 0.152344,-0.308594 v 0.507812 L 78.405044,16.093 78.287857,17.096907 v 1.753906 l 0.15625,0.730468 v -2.359374 l 0.257812,-2.574219 0.08203,0.917969 v 4.570312 l 0.05078,0.136719 v -4.722657 l -0.171892,3.753907 -0.191406,-0.789063 -0.183594,-1.054687 v -0.246094 l -0.08594,-0.304687 v -0.308594 l -0.08203,-0.4375 v -0.996094 l -0.05469,0.121094 -0.292969,3.066406 V 19.9055 17.026594 l 0.179687,-1.066406 0.02734,-0.578125 -0.03906,3.925781 v -0.191406 l -0.1875,-0.714844 -0.164063,-0.984375 -0.03516,-1.457031 v 0.425781 l -0.07031,0.140625 v 0.332031 l -0.07031,0.421875 v 1.980469 l 0.02734,0.320312 0.07422,0.05078 0.234375,-1.105469 0.0625,-0.914063 0.199219,0.851563 0.117188,1.121094 0.226562,1.101562 0.148438,0.523438 0.410156,0.871093 0.03906,-0.597656 v -3.28125 0.683594 l 0.179688,0.945312 0.03125,0.78125 v -0.308593 l -0.08202,-0.246094 -0.535156,-1.25 -0.203125,-0.613281 v 0.484375 l 0.300781,0.855469 0.445313,1.5625 0.02344,-0.09766"
       id="path887" />
    <path
       style="fill:none;stroke:#000000;stroke-width:1;stroke-linecap:round;stroke-linejoin:round;stroke-miterlimit:10;stroke-opacity:1"
       d="m 78.631587,18.979719 -0.02344,-0.02344 v 2.816407 l -0.273435,-0.679688 -0.804688,-2.738281 v 1 l 0.05078,0.445312 0.300782,1.414063 0.316406,1.996094 0.164062,0.789062 0.05469,0.07813 v -1.640625 l -0.06641,-0.457031 -0.05078,-0.05078 -0.08203,-0.4375 -0.05078,-0.02734 -0.480469,-1.117187 -0.167969,-0.257813 v 0.679687 l 0.355469,1.453126 0.234375,0.714843 0.113282,0.28125 0.488281,0.679688 0.07422,-0.05078 0.04297,-2.644532 0.05469,0.05859 0.320312,1.929688 0.109375,1.1875 0.132813,0.472656 0.113281,0.292968 v -0.921874 l -0.289063,-1.417969 0.06641,0.3125 0.25,0.609375 0.367187,1.308594 -0.02344,0.292968 -0.597657,-0.839844 -0.289062,-0.550781 -0.08984,-0.292969 v 0.511719 l 0.07422,0.328125 0.542969,1.648438 v -0.183594 l -0.105469,-0.28125 -0.113281,-0.152344 -0.738282,-1.574218 -0.02734,0.171874 0.07031,0.277344 0.417969,1.027344 v -3.859375 0.949219 l 0.08203,0.496094 0.03516,0.964843 -0.03906,-0.625 -0.699219,-1.726562 v 0.238281 l 0.480469,1.230469 0.417969,1.582031 -0.05469,-4.398438 -0.05078,-0.02734 -0.03125,-1.320313 v 5.113282 l 0.132813,0.945304 0.06641,0.378906 0.160156,0.503906 0.07422,0.105469 0.242187,-4.207031 v 0.242188 l 0.257813,0.988281 v -1.488281 0.421874 l -0.121094,0.777344 -0.03906,0.679688 v 2.886718 l 0.164063,0.628907 0.464844,1.183593 0.109375,0.140626 v -1.59375 l -0.25,-1.039063 -0.320313,-0.925781 -0.08203,-0.449219 -0.203125,-0.6875 0.03516,0.789063 0.132813,0.570312 0.304687,0.882812 -0.03906,-0.59375 -0.230469,-0.667968 0.04297,0.730468 0.574219,1.917969 -0.117188,-0.203125 -0.53125,-0.578125 -0.699219,-0.957031 -0.347656,-0.597656 0.03516,0.304687 0.257813,0.519531 0.800781,1.363282 -0.816406,-1.179688 -0.191407,-0.492187 -0.335937,-1.292969 -0.05469,-0.05078 v 0.34375 l 0.410156,1.042969 0.171875,0.375 0.359375,0.53125 v -0.121094 l -0.445313,-0.851563 -0.277343,-0.726562 -0.242188,-0.40625 v 0.382812 l 0.238281,0.75 0.296875,0.460938 1.347656,1.40625 0.984376,1.140625 0.136718,0.347656 -0.03516,-0.261719 -0.6875,-1.125 -0.234375,-0.558593 0.484375,0.957031 0.160156,0.21875 0.109375,0.332031 -0.523437,-0.5 -0.59375,-0.714844 -0.570313,-0.820312 v 0.359375 l 0.273438,0.796875 0.332031,0.582031 0.472656,0.570313 0.546875,0.476562 0.375,0.460938 v -0.1875 l -0.535156,-1.15625 -0.195313,-0.566407 -0.02734,0.07031 0.210937,0.421875 0.675782,1.148437 -0.449219,-0.554687 -0.28125,-0.472657 v 0.11719 l 0.496093,0.664062 -0.683593,-0.839843 -0.08203,-0.140625 0.3125,0.425781 0.152343,0.113281 0.476563,0.675782 h 0.05078 l 0.371094,0.398437 0.429687,0.347656 0.519532,0.671875 -0.511719,-0.332031 -0.542969,-0.519531 0.714844,0.726562 0.238281,0.15625 0.445313,0.449219 0.417968,0.289063 0.308594,0.328124 0.101562,0.05078 v -0.04687 l -0.835937,-0.746094 -0.273437,-0.386719 -0.40625,-0.4375 -0.59375,-0.433594 -0.203126,-0.02734 -0.21875,-0.109375 -0.207031,-0.183594"
       id="path889" />
    <path
       style="fill:none;stroke:#000000;stroke-width:1;stroke-linecap:round;stroke-linejoin:round;stroke-miterlimit:10;stroke-opacity:1"
       d="m 98.131587,29.764875 c -4.957032,2.34375 -10.871094,0.210938 -13.207032,-4.761718 -0.621093,-1.328126 -0.945312,-2.773438 -0.945312,-4.242188"
       id="path891" />
    <path
       style="fill:none;stroke:#000000;stroke-width:1;stroke-linecap:butt;stroke-linejoin:round;stroke-miterlimit:10;stroke-opacity:1"
       d="m 84.303462,15.948469 v 8.023438"
       id="path893" />
    <path
       style="fill:none;stroke:#000000;stroke-width:1;stroke-linecap:butt;stroke-linejoin:round;stroke-miterlimit:10;stroke-opacity:1"
       d="m 84.303462,15.948469 c 0,-5.316406 4.296875,-9.6289057 9.601562,-9.6289057 5.300781,0 9.597656,4.3124997 9.597656,9.6289057 0,0.140625 0,0.28125 -0.008,0.421875"
       id="path895" />
    <path
       style="fill:none;stroke:#000000;stroke-width:1;stroke-linecap:round;stroke-linejoin:round;stroke-miterlimit:10;stroke-opacity:1"
       d="M 83.908931,19.483625 V 18.163313 21.1555 l -0.132813,0.890625 -0.03516,0.710938"
       id="path897" />
    <path
       style="fill:none;stroke:#000000;stroke-width:1;stroke-linecap:round;stroke-linejoin:round;stroke-miterlimit:10;stroke-opacity:1"
       d="m 83.998774,22.843 v 0.859375 l 0.179688,0.398438 0.08984,0.351562 0.316407,0.582032 0.160156,0.519531 0.335937,0.6875 0.609376,1.015625 0.625,0.683594 0.503906,0.371093 -0.199219,-0.117187 -0.53125,-0.53125 -0.472656,-0.890625 v -0.101563 l 0.144531,0.03125 0.550781,0.40625 0.507813,0.542969 -0.441406,-0.378906 -0.3125,-0.34375 -0.09766,-0.03516 -0.683593,-0.816406"
       id="path899" />
    <path
       style="fill:none;stroke:#000000;stroke-width:1;stroke-linecap:round;stroke-linejoin:round;stroke-miterlimit:10;stroke-opacity:1"
       d="m 85.987055,26.983625 0.02734,0.214844 0.390625,0.417969 0.585938,0.765625 0.296875,0.296875 1.011718,0.652343 0.75,0.59375 0.78125,0.347657 1.519532,0.484375 1.027344,0.05469 0.652343,0.109375"
       id="path901" />
    <path
       style="fill:none;stroke:#000000;stroke-width:1;stroke-linecap:round;stroke-linejoin:round;stroke-miterlimit:10;stroke-opacity:1"
       d="m 84.252681,13.378157 v 3.328124 l -0.07031,0.140626 -0.06641,1.28125 -0.08203,0.460937 V 14.68675 l 0.261718,-1.230469 0.183594,-0.460937 v 1.019531 l -0.175781,0.992188 -0.167969,1.636718 -0.05859,1.703126 V 18.06175 l -0.07031,-0.140625 -0.07813,-0.636718 -0.03906,-1.988282 0.09375,-0.339844 0.15625,-1.320312 v 0.574219 l -0.140625,0.753906 -0.03516,0.511719 v -1.011719 l 0.394531,-1.773437 0.382813,-0.949219"
       id="path903" />
    <path
       style="fill:none;stroke:#000000;stroke-width:1;stroke-linecap:round;stroke-linejoin:round;stroke-miterlimit:10;stroke-opacity:1"
       d="m 84.740962,11.741438 v -0.511719 l 0.394531,-0.835938 0.304688,-0.5039057 v 0.1484377 l -0.554688,1.332031 -0.285156,0.855469 -0.179688,1.078125 v -0.261719 l 0.144532,-0.660156 0.226562,-0.714844 0.214844,-0.472656 -0.351563,0.605468 -0.261719,0.621094 -0.265624,0.464844 0.03906,-0.421875 0.238281,-0.59375 0.59375,-1.003906 0.304688,-0.375 0.542969,-0.421875 0.308593,-0.3164057 -0.929687,1.4492177 -0.285156,0.574219 0.15625,-0.433594 0.136718,-0.199219 -0.125,0.945313 -0.167968,0.445313 v -0.644532 l 0.265624,-1.152344 0.4375,-0.7460927 0.710938,-0.898438 0.621094,-0.957031 0.601562,-0.691406 v 0.058594 l -0.542968,0.746093 -1.445313,1.8789067 -0.08203,0.214843 0.433594,-0.4570307 1.324218,-1.628906 0.589844,-0.5 0.410156,-0.207032 -0.339844,0.273438 -0.933593,1.089844 -0.460938,0.621094 0.304688,-0.390626 1.136719,-1.1875 -0.191407,0.035157 -1.5625,1.347656 -0.296875,0.203125 -0.300781,0.277344 -0.210937,0.3124997 0.03125,-0.1445317 0.335937,-0.449218 0.710937,-0.863282 0.332032,-0.304687 0.386718,-0.242187 0.617188,-0.507813 0.597656,-0.347656 0.457032,-0.347657 0.980468,-0.554687 0.105469,-0.027344 v 0.050781 l -0.261719,0.203126 -1.304687,0.945312 -0.511719,0.417969 -0.21875,0.246093 0.378906,-0.199218 1.007813,-0.8125 0.457031,-0.257813 0.472656,-0.164062 0.105469,-0.082031 -0.300781,0.09375 -0.167969,0.109374 0.214844,-0.175781 0.480469,-0.261719 0.582031,-0.160156 0.785156,-0.316406 -0.589844,0.222656 -0.820312,0.433594 -0.167969,0.136719 -0.265625,0.347656 1.003906,-0.464844 0.390625,-0.113281 0.714844,-0.3125 0.07813,-0.078125 0.425781,-0.199219 0.636719,-0.089844 0.789063,-0.03125 -1.839844,0.027344 -0.554688,0.167969 h 1.449219 l 1.003906,0.140625 h 1.484375 -0.105468 l -0.570313,-0.273438 -0.363281,-0.054687 h -1.332032 l 0.84375,0.03125 1.277344,0.257813 0.644532,0.050781 1.078124,0.242187 0.34375,0.160156"
       id="path905" />
    <path
       style="fill:none;stroke:#000000;stroke-width:1;stroke-linecap:butt;stroke-linejoin:round;stroke-miterlimit:10;stroke-opacity:1"
       d="m 105.90502,18.354719 c 0,-7.089844 -5.73046,-12.8359377 -12.800777,-12.8359377"
       id="path907" />
    <path
       style="fill:none;stroke:#000000;stroke-width:1;stroke-linecap:butt;stroke-linejoin:round;stroke-miterlimit:10;stroke-opacity:1"
       d="m 103.49487,16.370344 0.008,12.414063"
       id="path909" />
    <path
       style="fill:none;stroke:#000000;stroke-width:1;stroke-linecap:round;stroke-linejoin:round;stroke-miterlimit:10;stroke-opacity:1"
       d="m 103.64331,17.175031 -0.0195,2.613282 0.19921,0.4375 0.21094,0.191406 h 0.66016 l 0.1914,0.109375 0.0703,0.121094 0.0352,0.175781 v 0.691406 l -0.20703,0.542969 -0.0977,0.421875 -0.0352,0.222656 v 0.554688 l 0.10938,0.207031 0.14453,0.144531 h 0.37891 l 0.19531,-0.199218 0.0352,-0.08594 0.22656,-1.378906 v -0.890625 l -0.0234,0.457031 -0.0469,0.28125 -0.34765,1.4375 -0.0898,-0.675781 v -0.597657 l -0.23829,0.628907 -0.0391,0.199219 v 0.289064 l 0.26954,0.125 h 0.0664 l 0.0586,-0.308594 v -0.347656 l 0.0508,-0.445312 0.0234,-1.199219 v 1.1875 l -0.0781,0.234375 -0.1875,0.296875 -0.0391,0.257812 v 0.375 l 0.0898,0.253907 -0.15625,-0.121094 -0.0781,-0.210938 -0.0195,-0.78125 0.41406,-1.015625 v -0.683593 l -0.0742,-0.710938 h -0.45313 l -0.0898,-0.05469 -0.80468,-0.01562 h 0.0508 l 0.3125,0.253906 0.19531,0.05469 0.26953,0.01563 0.40625,0.113282 0.10547,0.15625 0.0352,0.378906 0.0508,0.03516 0.16797,-0.605469 0.125,-0.605469 v -0.78125 l -0.13672,-0.382812 -0.0195,-0.183594 v 1.988282 l 0.0625,0.257812 0.0195,0.277344 v -2.292969 l -0.16406,-0.789063 -0.0703,-0.253906 -0.0742,-0.132812 -0.0312,0.335937 -0.0156,2.238281 -0.22266,-0.726562 -0.14453,-0.746094 -0.12109,-0.960937 v -0.335938 l -0.0742,-0.660156 -0.0312,0.01953 -0.0234,0.09375 -0.33203,2.953125 -0.0898,0.140625 -0.0156,0.113282 -0.0469,-0.382813 v -1.632813 l -0.0195,-0.199218 h -0.0312 l -0.35938,2.3125 0.0625,-0.179688 0.33594,-0.578125 0.25,-0.339843 0.0742,-0.05469 0.18359,-0.01953 0.0195,0.03906 0.14063,0.539063 v 0.355468 l 0.0859,0.01953 0.16406,-0.207032 -0.42188,0.277344 -0.42578,0.34375 -0.15234,0.01563 v -1 l 0.0273,-0.164062 0.13672,-0.382813 0.18359,-0.269531 0.22266,-0.08203 h 0.14843 l 0.0898,0.304687 v 0.683594 l -0.0703,0.140625 -0.0859,0.07422 -0.0312,-0.234375 v -2.449219 1.441406 l -0.10156,0.964844 v -2.109375 l -0.0586,-0.203125 v -0.39064 l -0.0391,-0.128906 -0.0586,0.203125 -0.25,1.792969 -0.0625,-0.824219 v -3.226563 1.597656 l -0.0547,0.574219 v 0.945313 -2.113282 l -0.0273,-0.3125 -0.0352,-0.05469 0.0195,2.679687 v -2.398437 h -0.0703 l -0.12109,0.667969 -0.0508,0.75 v 0.71875 -2.867188 l 0.0469,-0.65625 0.0664,0.01953 0.44922,1.042968 0.19531,0.847656 0.125,1.125 0.125,0.652344 0.23437,0.769532 0.0195,-0.5 -0.36718,-2.695313 -0.16407,-0.390625 0.0273,0.46875 0.10547,0.300781 0.0273,0.207031 0.39844,1.148438 0.26563,0.601562 0.0937,0.152344 v -0.894531 l -0.0937,-0.464844 -0.11719,-0.890625 -0.043,-0.132812 -0.0781,-0.648438 v 0.285156 l 0.21875,1.015626 0.0469,0.441406 -0.0273,-0.292969 -0.0586,-0.207031 -0.23438,-0.601563 -0.54687,-1.789062 -0.0547,-0.08984 v 0.71875 l 0.0352,0.351563 0.28906,1.632812 v -0.253906 l -0.0937,-0.417969 -0.18359,-0.5 -0.25781,-0.96875 0.0234,0.179687 0.52734,1.300782 0.41406,1.179687 v -0.214843 l -0.125,-0.21875 -0.5039,-1.144532 -0.0781,-0.101562 -0.0547,0.988281 -0.0703,0.449219 v -0.105469 0.417969 l -0.0273,-1.570313 v 0.128907 l 0.25781,0.578124 0.61719,1.125 v -0.507811 l -0.0312,-0.25 -0.24219,-0.667969 -0.33594,-0.757812 -0.58984,-1.042969 -0.39844,-0.925781 -0.21875,-1.363281 v 0.390624 l 0.1875,1.019532 0.20703,1.714844 0.19531,1.082031 0.0156,-0.527344 -0.0977,-0.929687 -0.17187,-0.910157 -0.26563,-0.855469 -0.41797,-1.070312 0.42579,0.4375 0.36718,0.453125 0.34766,0.558594 0.33203,1.042969 -0.41797,-1.097657 -0.27344,-0.542969 v 0.140626 l 0.19141,0.5 0.27344,0.859374 -0.0273,-0.386718 -0.13672,-0.597656 -0.21484,-0.726563 -0.0391,-0.07813 v 0.414062 l 0.14062,0.695313 -0.89844,-1.328125 -0.41406,-1.0625 v 0.175781 l 0.46094,1.128907 0.41015,1.285156 0.44141,1.222656 v -0.128906 l -0.0781,-0.257813 -0.16406,-0.332031 -0.0625,-0.207031 -0.26953,-0.621094 -0.1836,-0.546875 -0.52344,-1.265625 v -0.07031 l 0.0234,0.214844 0.19532,0.441406 0.082,0.292969 0.35156,0.929688 0.49219,1.144531 0.0703,0.359375 h 0.0664 v 0.03516 l -0.0195,-0.183593 -0.0898,-0.160157 -0.23047,-0.609375 -0.21485,-0.351562 v 0.382812 l 0.12891,0.621094 v 0.195312 h 0.0312 V 12.17894 l -0.92578,-1.203125 -0.22656,-0.414063 -0.31641,-0.8164057 0.0625,0.140625 0.44141,0.6914057 0.14843,0.171875 0.32032,0.539063 0.23046,0.339844 0.19141,0.214843 -0.0977,-0.273437 -0.47266,-0.824219 0.38672,0.273437 -0.0469,-0.164062 -0.11719,-0.15625 -0.14843,-0.03906 -0.13672,-0.08594 -1.04297,-0.8359377 -0.37891,-0.441406 -0.17968,-0.328125 -0.0859,-0.066406 -0.0195,-0.054687 -0.0508,-0.015626 0.86328,1.2578127 0.71484,1.40625 0.10547,0.285156 -0.043,-0.164062 -0.29297,-0.539063 -0.55469,-0.867187 -0.26953,-0.3476567 -0.1875,-0.183593 -0.36328,-0.523438 -0.5,-0.601562 -0.621117,-0.605471 0.117187,0.101562 0.41406,0.476563 0.58594,0.859375 0.16016,0.175781 h 0.0312 l -0.0195,-0.480469 -0.14453,-0.417968 -1.261723,-0.773438 -1.105468,-0.8125 -0.804688,-0.308594 -0.558594,-0.113281 h 0.191407 l 0.144531,0.0625 0.453125,0.296875 0.164063,0.074219 0.769531,0.527344 0.109375,0.035156 0.05078,0.066406 -0.199219,-0.019531 -0.648437,-0.332031 -0.355469,-0.121094 -0.199219,-0.144531 -0.125,-0.035156 -0.01563,-0.050782 h 0.230469 l 0.296875,0.105469 0.792969,0.386719 2.546872,2.070312 0.23828,0.238282 0.1836,0.2421867 1.37109,1.957031 0.45313,0.960938 0.23437,0.792968 0.043,0.324219 0.0273,1.324219 0.10156,0.898438 0.0195,0.902343 v -0.5625 l -0.0273,-0.207031 -0.23437,-0.953125 -0.27734,-1.90625 -0.16407,-0.546875 -0.24218,-0.484375 -0.11329,-0.136719 -0.47265,-0.84375 -0.28125,-0.398437 -0.21875,-0.386719 -0.16016,-0.230469 -0.0664,-0.04687 -0.24219,-0.417968 -0.0703,-0.07031 -0.27343,-0.4804687 -0.1211,-0.351562 0.27344,0.042968 0.23828,0.1875 0.36328,0.390626 0.16797,0.3007807 0.0352,0.128906 v -0.05859 l -0.23047,-0.2773427 -0.32031,-0.496094 0.63281,0.7343747 0.45313,0.605469 0.41406,0.707031 0.46094,0.949219 0.14453,0.5625 0.21484,1.289062 v 1.902344 l -0.0508,0.289062 -0.0547,0.714844 v 1.386719 l 0.125,-0.503907 0.24218,-1.289062 0.11719,-0.441406 0.24219,0.792968 0.24609,1.136719"
       id="path911" />
    <path
       style="fill:none;stroke:#000000;stroke-width:1;stroke-linecap:round;stroke-linejoin:round;stroke-miterlimit:10;stroke-opacity:1"
       d="M 104.57299,18.983625 V 19.62425"
       id="path913" />
    <path
       style="fill:none;stroke:#000000;stroke-width:1;stroke-linecap:round;stroke-linejoin:round;stroke-miterlimit:10;stroke-opacity:1"
       d="m 103.88549,19.878157 v 3.734374 l 0.0469,0.414063 v 2.675781 l -0.10547,1.152344 v -0.371094 l 0.10547,-0.636718 0.2461,-1.105469 0.24218,-1.945313 0.0273,-3.074218 -0.0469,-0.546876 V 25.593 l -0.10546,0.980469 -0.0703,-1.511719 v -4.441406 l -0.0781,-0.246094 -0.0352,0.01563 -0.44922,3.050782 -0.0312,0.882812 0.48047,-1.480469 0.23828,-1 0.15625,-0.46875 0.22656,-0.992187 0.0898,-0.269532 0.0586,0.09375 0.0586,0.496094 v 1.570313 l 0.0664,-1.746094 v 2.03125 l -0.0898,0.65625 -0.0742,0.222656 -0.043,0.261719 -0.13672,1.179688 -0.33984,0.835937 0.0234,-0.167969 0.50781,-0.988281 0.45312,-1.039063 0.0195,-0.472656 v 0.945313 l -0.25781,1.074219 -0.26953,0.738281 -0.39062,0.691406 -0.44532,0.972656 0.0234,-0.164062 0.33985,-0.910157 0.0664,-0.300781 0.45312,-1.367187 v 0.07422 l -0.1914,0.507813 -0.80078,1.847656 -0.15625,0.527344 -0.0586,0.34375 -0.12891,0.371094 0.10937,-1.40625 v -2.1875 l -0.125,-0.476563 v 0.167969 l 0.0742,0.351563 0.0469,0.09375 0.19532,0.839843 0.14843,0.367188 h 0.0508 l 0.44141,-1.699219 0.33984,-1.957031 0.1211,-0.976563 0.0273,-1.632812 0.043,-0.445313 v 1.320313 l -0.0664,0.648437 -0.1836,1.007813 -0.0273,1.160156 v -1.28125 l -0.11328,-1.289062 -0.043,0.144531 v 0.257812 l -0.0937,0.882813 0.0937,-2.660156 0.14844,-1.601563 0.16797,0.667969 0.14063,1.074218 -0.0195,3.605469"
       id="path915" />
    <g
       aria-label="CircuitQ"
       id="text926"
       style="font-size:20px;line-height:1.25;font-family:sans-serif;-inkscape-font-specification:sans-serif;stroke-width:0.75"
       transform="translate(-28.050974,-5.5804415)">
      <text
         xml:space="preserve"
         style="font-size:25px;line-height:1.25;font-family:sans-serif;-inkscape-font-specification:sans-serif;stroke-width:0.5625"
         x="28.279964"
         y="37.456322"
         id="text1667"><tspan
           id="tspan1665"
           x="28.279964"
           y="37.456322"
           style="font-style:normal;font-variant:normal;font-weight:normal;font-stretch:normal;font-size:25px;font-family:Futura;-inkscape-font-specification:Futura;stroke-width:0.5625">Circuit</tspan></text>
    </g>
  </g>
</svg>
